<?xml version="1.0"?>
<svg xmlns="http://www.w3.org/2000/svg" id="Outline" viewBox="0 0 512 512" width="100%" height="auto"><path d="M452.931,274.424A56.1,56.1,0,0,0,456,256c0-26.467-17.944-48-40-48,0-92.636-75.364-168-168-168H232C139.364,40,64,115.364,64,208c-22.056,0-40,21.533-40,48s17.944,48,40,48c.744,0,1.487-.038,2.228-.087C72,345.026,88.872,382.96,115.186,413.033,148.458,451.058,192.785,472,240,472s91.542-20.942,124.814-58.967a197.239,197.239,0,0,0,12.34-15.654A73.165,73.165,0,0,0,415.2,408c40.141,0,72.8-32.3,72.8-72A72.1,72.1,0,0,0,452.931,274.424ZM440,256c0,17.645-10.767,32-24,32-.187,0-.373-.016-.559-.022q.548-7.933.559-15.978c0-14.411-.543-30.74-3.7-47.6a18.077,18.077,0,0,1,3.7-.4C429.233,224,440,238.355,440,256ZM232,56h16c80.668,0,146.849,63.169,151.7,142.637-67.447-38.337-119.054-79.9-153.415-123.583a8,8,0,0,0-12.576,0C199.352,118.739,147.745,160.3,80.3,198.637,85.151,119.169,151.332,56,232,56ZM64,288c-13.233,0-24-14.355-24-32s10.767-32,24-32a18.07,18.07,0,0,1,3.7.4C64.543,241.26,64,257.589,64,272q0,8.043.559,15.978C64.373,287.984,64.187,288,64,288ZM240,456c-88.225,0-160-82.542-160-184,0-24.7,2.022-42.473,6.723-58.6C152.735,176.045,204.238,135.485,240,92.7c35.763,42.787,87.266,83.347,153.277,120.7C397.978,229.527,400,247.3,400,272,400,373.458,328.225,456,240,456Zm175.2-64a56.89,56.89,0,0,1-29.285-8.071,214.134,214.134,0,0,0,27.854-80.016c.741.049,1.484.087,2.228.087,11.582,0,22.025-5.944,29.337-15.416A56.086,56.086,0,0,1,471.823,336C471.823,366.878,446.424,392,415.2,392Z"/><path d="M292.024,289.085a8,8,0,0,0-10.938,2.891C269.35,312.143,257.83,320,240,320s-29.35-7.857-41.086-28.024a8,8,0,1,0-13.828,8.048C194.834,316.774,209.885,336,240,336c12.952,0,23.889-3.4,33.436-10.406,7.853-5.761,14.678-13.886,21.478-25.57A8,8,0,0,0,292.024,289.085Z"/><path d="M136,239.707a8,8,0,0,0,8-8,24.027,24.027,0,0,1,24-24,8,8,0,0,0,0-16,40.045,40.045,0,0,0-40,40A8,8,0,0,0,136,239.707Z"/><path d="M312,192a8,8,0,0,0,0,16,24.027,24.027,0,0,1,24,24,8,8,0,0,0,16,0A40.045,40.045,0,0,0,312,192Z"/><path d="M232,272h16a8,8,0,0,0,0-16h-6.557l6.449-38.685a8,8,0,0,0-15.784-2.63l-8,48A8,8,0,0,0,232,272Z"/><path d="M152,272H136a8,8,0,0,0,0,16h16a8,8,0,0,0,0-16Z"/><path d="M344,272H328a8,8,0,0,0,0,16h16a8,8,0,0,0,0-16Z"/><circle cx="176" cy="240" r="16"/><circle cx="304" cy="240" r="16"/></svg>
