<?xml version="1.0"?>
<svg xmlns="http://www.w3.org/2000/svg" id="Outline" viewBox="0 0 512 512" width="512" height="512"><path d="M88,456h98.8a157.636,157.636,0,0,0,138.4,0H424a71.957,71.957,0,0,0,40-131.8V292.766A54.274,54.274,0,0,0,472,264a53.557,53.557,0,0,0-10.1-31.833C454.968,179.721,430.843,131.5,393.8,96.2,355.774,59.958,306.837,40,256,40S156.226,59.958,118.2,96.2c-37.045,35.306-61.17,83.524-68.1,135.97A53.557,53.557,0,0,0,40,264a54.274,54.274,0,0,0,8,28.766V324.2A71.957,71.957,0,0,0,88,456Zm8-184.153A208.136,208.136,0,0,1,103.5,216h33.175a48,48,0,1,0,94.642,0h16.568l-7.781,46.685A8,8,0,0,0,248,272h16a8,8,0,0,0,0-16h-6.557l6.449-38.685a8.045,8.045,0,0,0,.1-1.315h16.687a48,48,0,1,0,94.642,0h33.366A213.135,213.135,0,0,1,416,271.847C416,373.389,344.225,456,256,456S96,373.389,96,271.847Zm-14.739,24.1c-.42.029-.84.049-1.261.049-13.233,0-24-14.355-24-32s10.767-32,24-32a18.1,18.1,0,0,1,3.413.336A227.6,227.6,0,0,0,80,271.847,231.022,231.022,0,0,0,81.261,295.951ZM456,264c0,17.645-10.767,32-24,32-.421,0-.841-.02-1.261-.049a231.022,231.022,0,0,0,1.261-24.1,233.528,233.528,0,0,0-3.337-39.526A18.048,18.048,0,0,1,432,232C445.233,232,456,246.355,456,264ZM328,176a48.014,48.014,0,0,0-41.542,24H225.542a47.953,47.953,0,0,0-83.084,0H108.671q1.729-4.671,3.689-9.262a24.476,24.476,0,0,1,22.661-14.92q.468,0,.939.017c4.025.148,8.076.223,12.04.223,42.994,0,84.442-7.372,116.711-20.757,29.971-12.431,50.356-29,59.6-48.306,26.093,13.609,48.154,34.623,64.144,61.2A184.864,184.864,0,0,1,403.592,200h-34.05A48.014,48.014,0,0,0,328,176Zm32,48a32,32,0,1,1-32-32A32.036,32.036,0,0,1,360,224Zm-144,0a32,32,0,1,1-32-32A32.036,32.036,0,0,1,216,224ZM480,384a56.063,56.063,0,0,1-56,56H351.58a184.172,184.172,0,0,0,29.236-27.015c24.6-28.131,40.951-63.135,47.692-101.188A33.153,33.153,0,0,0,448,307.98v20.652a8,8,0,0,0,3.99,6.922A56.2,56.2,0,0,1,480,384ZM129.24,107.779C164.275,74.389,209.293,56,256,56s91.725,18.389,126.76,51.779c30.54,29.107,51.641,67.714,60.514,110.175a33.129,33.129,0,0,0-17.873-1.277,205.367,205.367,0,0,0-23.236-56.733c-19.2-31.914-46.473-56.545-78.861-71.23a8,8,0,0,0-10.978,5.025c-5.3,17.991-24.388,34.606-53.746,46.783-30.37,12.6-69.642,19.536-110.58,19.536-3.77,0-7.623-.072-11.454-.212a40.36,40.36,0,0,0-38.9,24.6A216.953,216.953,0,0,0,86.76,216.71a33.137,33.137,0,0,0-18.034,1.244C77.6,175.493,98.7,136.886,129.24,107.779ZM60.01,335.554A8,8,0,0,0,64,328.632V307.98A33.184,33.184,0,0,0,83.492,311.8c6.741,38.052,23.1,73.056,47.692,101.187A184.172,184.172,0,0,0,160.42,440H88A55.964,55.964,0,0,1,60.01,335.554Z"/><path d="M308.024,289.085a8,8,0,0,0-10.938,2.891C285.35,312.143,273.83,320,256,320s-29.35-7.857-41.086-28.024a8,8,0,1,0-13.828,8.048C210.834,316.774,225.885,336,256,336c12.952,0,23.889-3.4,33.436-10.406,7.853-5.761,14.678-13.886,21.478-25.57A8,8,0,0,0,308.024,289.085Z"/><path d="M168,280H152a8,8,0,0,0,0,16h16a8,8,0,0,0,0-16Z"/><path d="M368,288a8,8,0,0,0-8-8H344a8,8,0,0,0,0,16h16A8,8,0,0,0,368,288Z"/><circle cx="184" cy="224" r="16"/><circle cx="328" cy="224" r="16"/></svg>
