<?xml version="1.0"?>
<svg xmlns="http://www.w3.org/2000/svg" id="Outline" viewBox="0 0 512 512" width="100%" height="100%"><path d="M320,208a24.027,24.027,0,0,1,24,24,8,8,0,0,0,16,0,40.045,40.045,0,0,0-40-40,8,8,0,0,0,0,16Z"/><path d="M248,272h16a8,8,0,0,0,0-16h-6.556l6.447-38.685a8,8,0,0,0-15.782-2.63l-8,48A8,8,0,0,0,248,272Z"/><path d="M308.024,289.085a8,8,0,0,0-10.939,2.891C285.349,312.143,273.83,320,256,320s-29.349-7.857-41.085-28.024a8,8,0,0,0-13.83,8.048C210.833,316.774,225.885,336,256,336c12.952,0,23.889-3.4,33.435-10.406,7.854-5.761,14.679-13.886,21.48-25.57A8,8,0,0,0,308.024,289.085Z"/><path d="M135.994,472a8,8,0,0,0,8-8V426.308C175.449,455.893,214.636,472,256,472c47.215,0,91.542-20.942,124.814-58.967a200.708,200.708,0,0,0,29.08-43.808A88,88,0,0,0,464,288V256h-.038c.034-2.7.057-5.427,0-8.157h0a209.075,209.075,0,0,0-18.914-83.163,215.5,215.5,0,0,0-77.1-90.163C333.911,51.936,295.194,40,255.984,40c-55.728,0-108.067,24.249-147.378,68.28C69.524,152.056,48,210.2,48,272V384.006A88.094,88.094,0,0,0,135.994,472ZM256,456c-42.148,0-81.907-18.693-112.006-52.64V272.038A72.1,72.1,0,0,1,216,200c23.43,0,49.41-9.394,69.5-25.128,10.967-8.591,19.506-18.373,25.346-28.855a88.213,88.213,0,0,0,73.349,53.638c1.58,31.46,12.972,55.234,31.809,68.48V272C416,373.458,344.224,456,256,456ZM419.959,344.978a223.673,223.673,0,0,0,12-68.777A71.118,71.118,0,0,0,448,279.613V288A72.471,72.471,0,0,1,419.959,344.978ZM64,272C64,152.9,150.124,56,255.984,56,292.038,56,327.7,67.014,359.1,87.85A199.537,199.537,0,0,1,430.5,171.319a193.182,193.182,0,0,1,17.474,76.836h0c.066,3.366.016,6.739-.037,10.309-.025,1.665-.05,3.351-.062,5.054-14.384-1.757-25.783-8.343-33.958-19.644-9.093-12.567-13.9-30.5-13.911-51.85a8.089,8.089,0,0,0-2.372-5.683A7.993,7.993,0,0,0,391.975,184,72.086,72.086,0,0,1,320,112v-.126h0a8,8,0,0,0-15.992-.22c0,.121-.008.243-.008.364,0,18.082-10.08,35.931-28.371,50.259C258.264,175.879,235.973,184,215.994,184a88.122,88.122,0,0,0-88,88.037V455.559A72.1,72.1,0,0,1,64,384.006Z"/><path d="M176,272H160a8,8,0,0,0,0,16h16a8,8,0,0,0,0-16Z"/><path d="M352,272H336a8,8,0,0,0,0,16h16a8,8,0,0,0,0-16Z"/><circle cx="200" cy="240" r="16"/><circle cx="312" cy="240" r="16"/></svg>
