<?xml version="1.0"?>
<svg xmlns="http://www.w3.org/2000/svg" id="Outline" viewBox="0 0 512 512" width="512" height="512"><path d="M152,247.707a8,8,0,0,0,8-8,24.027,24.027,0,0,1,24-24,8,8,0,0,0,0-16,40.045,40.045,0,0,0-40,40A8,8,0,0,0,152,247.707Z"/><path d="M328,200a8,8,0,0,0,0,16,24.027,24.027,0,0,1,24,24,8,8,0,0,0,16,0A40.045,40.045,0,0,0,328,200Z"/><path d="M248,280h16a8,8,0,0,0,0-16h-6.557l6.449-38.685a8,8,0,0,0-15.784-2.63l-8,48A8,8,0,0,0,248,280Z"/><path d="M308.024,297.085a8,8,0,0,0-10.938,2.891C285.35,320.143,273.83,328,256,328s-29.35-7.857-41.086-28.024a8,8,0,1,0-13.828,8.048C210.834,324.774,225.885,344,256,344c12.952,0,23.889-3.4,33.436-10.406,7.853-5.761,14.678-13.886,21.478-25.57A8,8,0,0,0,308.024,297.085Z"/><path d="M168,280H152a8,8,0,0,0,0,16h16a8,8,0,0,0,0-16Z"/><path d="M360,280H344a8,8,0,0,0,0,16h16a8,8,0,0,0,0-16Z"/><circle cx="192" cy="248" r="16"/><circle cx="320" cy="248" r="16"/><path d="M496,336h-8a24.027,24.027,0,0,1-24-24V264c0-52.8-16.468-110.687-44.053-154.841C388.863,59.4,347.686,32,304,32c-20,0-39.483,9.748-48,14.638C247.483,41.748,228,32,208,32c-44.443,0-85.846,27.166-116.582,76.494C64.231,152.126,48,210.259,48,264v48a24.027,24.027,0,0,1-24,24H16a8,8,0,0,0-8,8v4c0,15.7,10.856,33.046,29.041,46.391a114.333,114.333,0,0,0,88.266,19.593q2.856,3.591,5.879,7.049C164.458,459.058,208.785,480,256,480s91.542-20.942,124.814-58.967q3.022-3.454,5.876-7.045a114.39,114.39,0,0,0,88.269-19.6C493.144,381.046,504,363.7,504,348v-4A8,8,0,0,0,496,336ZM256,464c-88.225,0-160-82.542-160-184,0-37.29,15-78.305,28.732-104H387.268C401,201.7,416,242.71,416,280,416,381.458,344.225,464,256,464Zm152-64a98.42,98.42,0,0,1-10.759-.6C419.8,365.084,432,323.6,432,280c0-42.382-17.065-87.678-33.035-115.936A8,8,0,0,0,392,160H120a8,8,0,0,0-6.965,4.064C97.065,192.322,80,237.618,80,280c0,43.6,12.2,85.084,34.758,119.4A98.072,98.072,0,0,1,104,400c-42.764,0-75.615-27.686-79.595-48A40.045,40.045,0,0,0,64,312V264c0-50.875,15.326-105.845,41-147.044C132.705,72.489,169.285,48,208,48c21.211,0,43.35,14.515,43.562,14.656a8,8,0,0,0,8.876,0C260.657,62.51,282.669,48,304,48c37.966,0,74.324,24.73,102.378,69.636C432.44,159.354,448,214.07,448,264v48a40.045,40.045,0,0,0,39.6,40C483.615,372.314,450.764,400,408,400Z"/></svg>
