<?xml version="1.0"?>
<svg xmlns="http://www.w3.org/2000/svg" id="Outline" viewBox="0 0 512 512" width="100%" height="auto"><path d="M152,239.707a8,8,0,0,0,8-8,24.027,24.027,0,0,1,24-24,8,8,0,0,0,0-16,40.045,40.045,0,0,0-40,40A8,8,0,0,0,152,239.707Z"/><path d="M328,192a8,8,0,0,0,0,16,24.027,24.027,0,0,1,24,24,8,8,0,0,0,16,0A40.045,40.045,0,0,0,328,192Z"/><path d="M248,272h16a8,8,0,0,0,0-16h-6.556l6.447-38.685a8,8,0,0,0-15.782-2.63l-8,48A8,8,0,0,0,248,272Z"/><path d="M308.024,289.085a8,8,0,0,0-10.939,2.891C285.349,312.143,273.83,320,256,320s-29.349-7.857-41.085-28.024a8,8,0,0,0-13.83,8.048C210.833,316.774,225.885,336,256,336c12.952,0,23.889-3.4,33.435-10.406,7.854-5.761,14.679-13.886,21.48-25.57A8,8,0,0,0,308.024,289.085Z"/><path d="M168,272H152a8,8,0,0,0,0,16h16a8,8,0,0,0,0-16Z"/><path d="M360,272H344a8,8,0,0,0,0,16h16a8,8,0,0,0,0-16Z"/><circle cx="192" cy="240" r="16"/><circle cx="320" cy="240" r="16"/><path d="M470.761,267.867A57.081,57.081,0,0,0,472,256c0-15.387-5.923-29.419-16-38.433V168A128.144,128.144,0,0,0,328,40a126.831,126.831,0,0,0-72,22.156A126.831,126.831,0,0,0,184,40,128.144,128.144,0,0,0,56,168v49.567C45.922,226.58,40,240.613,40,256a57.081,57.081,0,0,0,1.239,11.867A100,100,0,0,0,124,424a100.842,100.842,0,0,0,16.244-1.317C172.3,454.581,212.948,472,256,472s83.7-17.419,115.756-49.317A100.063,100.063,0,0,0,488,324,99.45,99.45,0,0,0,470.761,267.867ZM432,272V224a19.049,19.049,0,0,1,11.317,3.837C451.14,233.5,456,244.289,456,256c0,17.645-10.766,32-24,32-.187,0-.373-.016-.559-.022Q431.989,280.045,432,272Zm8-104v40.963a33.246,33.246,0,0,0-13.162-.551c-66.4-37.4-127.248-86.546-163.4-131.92A110.976,110.976,0,0,1,328,56,112.127,112.127,0,0,1,440,168ZM184,56a110.976,110.976,0,0,1,64.559,20.492c-36.15,45.374-97,94.516-163.4,131.919A33.282,33.282,0,0,0,72,208.963V168A112.127,112.127,0,0,1,184,56ZM68.683,227.837A19.049,19.049,0,0,1,80,224v48q0,8.043.559,15.978c-.186.006-.372.022-.559.022-13.234,0-24-14.355-24-32C56,244.288,60.86,233.5,68.683,227.837ZM40,324a83.606,83.606,0,0,1,8.96-37.767C56.3,297.064,67.486,304,80,304c.744,0,1.487-.038,2.228-.087,5.447,38.831,20.814,74.818,44.674,104.032-.967.033-1.934.055-2.9.055A84.1,84.1,0,0,1,40,324ZM256,456c-88.224,0-160-82.542-160-184V220.667c63.942-36.445,122.76-83.547,160-127.982,37.24,44.434,96.058,91.537,160,127.982V272C416,373.458,344.224,456,256,456Zm132-48c-.968,0-1.935-.022-2.9-.055,23.86-29.214,39.227-65.2,44.674-104.032.741.049,1.484.087,2.228.087,12.514,0,23.7-6.936,31.04-17.767A84.014,84.014,0,0,1,388,408Z"/></svg>
