<?xml version="1.0"?>
<svg xmlns="http://www.w3.org/2000/svg" id="Outline" viewBox="0 0 512 512" width="512" height="512"><path d="M308.024,289.085a8,8,0,0,0-10.939,2.891C285.349,312.143,273.83,320,256,320s-29.349-7.857-41.085-28.024a8,8,0,0,0-13.83,8.048C210.833,316.774,225.885,336,256,336c12.952,0,23.889-3.4,33.435-10.406,7.854-5.761,14.679-13.886,21.48-25.57A8,8,0,0,0,308.024,289.085Z"/><path d="M152,239.707a8,8,0,0,0,8-8,24.027,24.027,0,0,1,24-24,8,8,0,0,0,0-16,40.045,40.045,0,0,0-40,40A8,8,0,0,0,152,239.707Z"/><path d="M328,192a8,8,0,0,0,0,16,24.027,24.027,0,0,1,24,24,8,8,0,0,0,16,0A40.045,40.045,0,0,0,328,192Z"/><path d="M248,272h16a8,8,0,0,0,0-16h-6.556l6.447-38.685a8,8,0,0,0-15.782-2.63l-8,48A8,8,0,0,0,248,272Z"/><path d="M168,272H152a8,8,0,0,0,0,16h16a8,8,0,0,0,0-16Z"/><path d="M360,272H344a8,8,0,0,0,0,16h16a8,8,0,0,0,0-16Z"/><circle cx="192" cy="240" r="16"/><circle cx="320" cy="240" r="16"/><path d="M488,304a32.041,32.041,0,0,0-19.16-29.3A56.075,56.075,0,0,0,472,256c0-26.467-17.944-48-40-48v-8c0-92.636-75.364-168-168-168H248C155.364,32,80,107.364,80,200v8c-22.056,0-40,21.533-40,48a56.075,56.075,0,0,0,3.16,18.7A31.965,31.965,0,0,0,34.868,328a31.934,31.934,0,0,0,0,48,31.949,31.949,0,0,0,3.75,50.847L24.411,469.47A8,8,0,0,0,32,480H80a8,8,0,0,0,7.589-10.53L73.382,426.847A31.949,31.949,0,0,0,77.132,376a31.934,31.934,0,0,0,0-48,32.183,32.183,0,0,0,7.562-9.854c7.365,35.611,23.244,68.318,46.492,94.887C164.458,451.058,208.785,472,256,472s91.542-20.942,124.814-58.967c23.248-26.569,39.127-59.276,46.492-94.887A32.183,32.183,0,0,0,434.868,328a31.934,31.934,0,0,0,0,48,31.949,31.949,0,0,0,3.75,50.847L424.411,469.47A8,8,0,0,0,432,480h48a8,8,0,0,0,7.589-10.53l-14.207-42.623A31.949,31.949,0,0,0,477.132,376a31.934,31.934,0,0,0,0-48A31.923,31.923,0,0,0,488,304Zm-32-48c0,17.645-10.766,32-24,32-.187,0-.373-.016-.559-.022q.548-7.932.559-15.978c0-14.411-.543-30.741-3.7-47.6a18.07,18.07,0,0,1,3.7-.4C445.234,224,456,238.355,456,256ZM248,48h16c83.411,0,151.334,67.536,151.985,150.8-67.585-38.381-119.288-80-153.7-123.743a8,8,0,0,0-12.576,0C215.3,118.8,163.6,160.416,96.015,198.8,96.666,115.536,164.589,48,248,48ZM80,224a18.07,18.07,0,0,1,3.7.4C80.543,241.259,80,257.589,80,272q0,8.043.559,15.978c-.186.006-.372.022-.559.022-13.234,0-24-14.355-24-32S66.766,224,80,224ZM58.234,432,68.9,464H43.1l10.666-32ZM72,400a16,16,0,1,1-16-16A16.019,16.019,0,0,1,72,400Zm0-48a16,16,0,1,1-16-16A16.019,16.019,0,0,1,72,352ZM40,304a16.017,16.017,0,0,1,10.879-15.144,38.864,38.864,0,0,0,21.073,14.168c.019.325.048.648.048.976a16,16,0,0,1-32,0ZM256,456c-88.224,0-160-82.542-160-184,0-24.7,2.023-42.475,6.722-58.6C168.734,176.046,220.237,135.485,256,92.7c35.762,42.787,87.266,83.347,153.278,120.7C413.977,229.525,416,247.3,416,272,416,373.458,344.224,456,256,456Zm202.234-24L468.9,464H443.1l10.666-32ZM472,400a16,16,0,1,1-16-16A16.019,16.019,0,0,1,472,400Zm0-48a16,16,0,1,1-16-16A16.019,16.019,0,0,1,472,352Zm-32-48c0-.327.021-.651.041-.975a38.853,38.853,0,0,0,21.08-14.169A15.994,15.994,0,1,1,440,304Z"/></svg>
