<?xml version="1.0"?>
<svg xmlns="http://www.w3.org/2000/svg" id="Outline" viewBox="0 0 512 512" width="100%" height="auto"><path d="M152,239.707a8,8,0,0,0,8-8,24.027,24.027,0,0,1,24-24,8,8,0,0,0,0-16,40.045,40.045,0,0,0-40,40A8,8,0,0,0,152,239.707Z"/><path d="M328,208a24.027,24.027,0,0,1,24,24,8,8,0,0,0,16,0,40.045,40.045,0,0,0-40-40,8,8,0,0,0,0,16Z"/><path d="M248,272h16a8,8,0,0,0,0-16h-6.557l6.449-38.685a8,8,0,0,0-15.784-2.63l-8,48A8,8,0,0,0,248,272Z"/><path d="M308.024,289.085a8,8,0,0,0-10.938,2.891C285.35,312.143,273.83,320,256,320s-29.35-7.857-41.086-28.024a8,8,0,1,0-13.828,8.048C210.834,316.774,225.885,336,256,336c12.952,0,23.889-3.4,33.436-10.406,7.853-5.761,14.678-13.886,21.478-25.57A8,8,0,0,0,308.024,289.085Z"/><path d="M168,272H152a8,8,0,0,0,0,16h16a8,8,0,0,0,0-16Z"/><path d="M368,280a8,8,0,0,0-8-8H344a8,8,0,0,0,0,16h16A8,8,0,0,0,368,280Z"/><circle cx="192" cy="240" r="16"/><circle cx="320" cy="240" r="16"/><path d="M458.833,220.434c-10.181-50-35.405-95.424-71.194-128.085C350.648,58.591,303.9,40,256,40c-47.937,0-94.717,18.618-131.723,52.424C88.556,125.058,63.38,170.4,53.191,220.319,44.78,229.405,40,242.251,40,256a54.6,54.6,0,0,0,8,28.869V416a40.045,40.045,0,0,0,40,40h99.087a156.294,156.294,0,0,0,137.774,0H424a40.045,40.045,0,0,0,40-40V284.85A54.753,54.753,0,0,0,472,256C472,241.912,466.915,229.223,458.833,220.434Zm-323.764-116.2C169.119,73.131,212.066,56,256,56c43.9,0,86.817,17.106,120.854,48.167,29.763,27.162,51.69,63.886,62.8,104.725A33.624,33.624,0,0,0,432,208H420.805c-2.273-1.835-4.643-3.517-6.912-5.122-4.277-3.024-8.7-6.152-10.737-9.2-1.934-2.889-2.677-8.223-3.4-13.381-1.116-8.012-2.382-17.092-8.67-23.382s-15.369-7.554-23.381-8.671c-5.158-.719-10.492-1.463-13.381-3.4-2.835-1.9-5.532-6.51-8.14-10.97-4.107-7.021-8.761-14.978-17.052-18.416-8.149-3.38-16.978-1.081-24.769.946-5.084,1.322-10.342,2.69-13.832,2-2.81-.556-7.382-5.065-11.055-8.687C272.96,103.289,265.569,96,256,96s-16.959,7.29-23.479,13.721c-3.673,3.622-8.244,8.131-11.053,8.687-3.493.692-8.747-.677-13.831-2-7.791-2.028-16.621-4.326-24.765-.948-8.292,3.438-12.946,11.394-17.052,18.414-2.608,4.46-5.305,9.072-8.139,10.969-1.987,1.331-7.409.469-11.767-.222-7.963-1.265-17.873-2.837-24.995,4.288-6.367,6.366-7.547,17.346-8.688,27.965-.669,6.234-1.5,13.993-3.38,16.8-2.039,3.046-6.463,6.175-10.741,9.2-2.27,1.606-4.642,3.29-6.917,5.127H80a33.715,33.715,0,0,0-7.661.9C83.443,168.092,105.341,131.4,135.069,104.237ZM56,256c0-10.224,3.771-19.94,10.087-25.991A20.232,20.232,0,0,1,80,224v47.707q0,8.217.583,16.27c-.194.006-.388.023-.583.023-6.329,0-12.327-3.327-16.89-9.369A37.641,37.641,0,0,1,56,256ZM88,440a24.027,24.027,0,0,1-24-24V300a34.544,34.544,0,0,0,16,4c.764,0,1.526-.038,2.286-.089C90.41,360.869,119.71,409.847,160.671,440Zm8-168.293V225.879c2.061-3.372,6.775-6.707,11.351-9.944,5.462-3.865,11.112-7.861,14.8-13.361,4.07-6.079,5-14.779,5.994-23.989.684-6.366,1.717-15.987,4.092-18.361,1.357-1.357,7.032-.457,11.174.2,7.488,1.188,15.975,2.537,23.175-2.284,5.889-3.942,9.529-10.167,13.051-16.187,2.972-5.08,6.044-10.334,9.368-11.712,3.184-1.321,8.989.19,14.607,1.652,6.506,1.692,13.881,3.612,20.965,2.211,7.522-1.488,13.451-7.337,19.185-12.993C247.872,117.052,252.994,112,256,112s8.129,5.052,12.245,9.112c5.734,5.656,11.663,11.5,19.185,12.992,7.084,1.4,14.459-.518,20.966-2.21,5.617-1.461,11.426-2.97,14.611-1.651,3.324,1.379,6.4,6.633,9.369,11.715,3.52,6.02,7.162,12.245,13.05,16.187,5.942,3.979,13.126,4.98,20.074,5.948,5.791.808,11.779,1.643,14.275,4.139s3.33,8.485,4.138,14.276c.968,6.948,1.969,14.131,5.947,20.074,3.682,5.5,9.331,9.5,14.794,13.359,4.457,3.153,9.047,6.4,11.184,9.682.107,2.121.162,4.26.162,6.377v39.707C416,373.327,344.225,456,256,456S96,373.327,96,271.707ZM448,416a24.027,24.027,0,0,1-24,24H351.329c40.961-30.153,70.261-79.131,78.385-136.089.76.051,1.522.089,2.286.089a34.513,34.513,0,0,0,16-3.992Zm1.47-138.164C444.913,284.3,438.545,288,432,288c-.195,0-.389-.017-.583-.023q.572-8.052.583-16.27V232c0-2.147-.05-4.315-.147-6.47a8,8,0,0,0,.128-1.53H432c13.233,0,24,14.355,24,32A38.084,38.084,0,0,1,449.47,277.836Z"/></svg>
