<?xml version="1.0"?>
<svg xmlns="http://www.w3.org/2000/svg" id="Outline" viewBox="0 0 512 512" width="100%" height="auto"><path d="M40,417.6c0,12.5,5.464,19.054,9.854,24.322C53.555,446.361,56,449.3,56,456a8,8,0,0,0,8,8H187.087a156.406,156.406,0,0,0,137.826,0H448a8,8,0,0,0,8-8c0-6.7,2.445-9.639,6.146-14.081,4.39-5.268,9.854-11.825,9.854-24.322s-5.464-19.054-9.854-24.323c-3.7-4.441-6.146-7.376-6.146-14.08s2.445-9.636,6.146-14.077c4.39-5.268,9.854-11.825,9.854-24.321s-5.464-19.052-9.854-24.321C458.445,312.034,456,309.1,456,302.4h-.025C465.7,293.632,472,279.683,472,264c0-15.732-6.341-29.721-16.116-38.48C452.45,118.228,364.111,32,256,32S59.55,118.228,56.116,225.52C46.341,234.279,40,248.268,40,264c0,15.683,6.3,29.632,16.025,38.4H56c0,6.7-2.445,9.637-6.146,14.078C45.464,321.744,40,328.3,40,340.8s5.464,19.053,9.854,24.321c3.7,4.441,6.146,7.374,6.146,14.077s-2.445,9.639-6.146,14.08C45.464,398.543,40,405.1,40,417.6Zm56-137.89V233.879c2.061-3.372,6.775-6.707,11.351-9.944,5.462-3.865,11.112-7.861,14.8-13.361,4.07-6.079,5-14.779,5.994-23.989.684-6.366,1.717-15.987,4.092-18.361,1.357-1.357,7.032-.457,11.174.2,7.488,1.189,15.975,2.536,23.175-2.284,5.889-3.942,9.529-10.167,13.051-16.187,2.972-5.08,6.044-10.334,9.368-11.712,3.184-1.321,8.989.19,14.607,1.652,6.507,1.692,13.879,3.612,20.965,2.211,7.522-1.488,13.451-7.337,19.185-12.993C247.872,125.052,252.994,120,256,120s8.129,5.052,12.245,9.112c5.734,5.656,11.663,11.5,19.185,12.992,7.084,1.4,14.46-.517,20.966-2.21,5.616-1.461,11.425-2.971,14.611-1.651,3.324,1.379,6.4,6.633,9.369,11.715,3.52,6.02,7.162,12.245,13.05,16.187,5.942,3.979,13.126,4.98,20.074,5.948,5.791.808,11.779,1.643,14.275,4.139s3.33,8.485,4.138,14.276c.968,6.948,1.969,14.131,5.947,20.074,3.682,5.5,9.331,9.5,14.794,13.359,4.457,3.153,9.047,6.4,11.184,9.682.107,2.121.162,46.084.162,46.084C416,381.327,344.225,464,256,464S96,381.327,96,279.707Zm353.854,47.011c3.7,4.441,6.146,7.375,6.146,14.078s-2.445,9.637-6.146,14.078c-4.39,5.268-9.854,11.824-9.854,24.32s5.464,19.054,9.854,24.323c3.7,4.441,6.146,7.376,6.146,14.08s-2.445,9.639-6.146,14.08c-3.342,4.011-7.306,8.767-9.008,16.323H351.329c40.961-30.153,70.261-79.131,78.385-136.089.76.051,1.522.089,2.286.089a33.615,33.615,0,0,0,8.936-1.223C442.684,318.111,446.569,322.776,449.854,326.718ZM432,296c-.195,0-.389-.017-.583-.023q.572-8.052.583-16.27s-.05-44.022-.147-46.177a8.074,8.074,0,0,0,.128-1.529H432c13.233,0,24,14.355,24,32S445.233,296,432,296ZM256,48c96.35,0,175.631,74.443,183.37,168.831A33.556,33.556,0,0,0,432,216a33.982,33.982,0,0,0-9.525,1.393c-2.76-2.393-5.751-4.512-8.582-6.515-4.277-3.024-8.7-6.152-10.737-9.2-1.934-2.889-2.677-8.223-3.4-13.381-1.116-8.012-2.382-17.092-8.67-23.382s-15.369-7.554-23.381-8.671c-5.158-.719-10.492-1.463-13.381-3.4-2.835-1.9-5.532-6.51-8.14-10.97-4.107-7.021-8.761-14.978-17.052-18.416-8.149-3.38-16.979-1.081-24.769.946-5.083,1.322-10.341,2.69-13.832,2-2.81-.556-7.382-5.065-11.055-8.687C272.96,111.289,265.569,104,256,104s-16.959,7.29-23.479,13.721c-3.673,3.622-8.244,8.131-11.053,8.687-3.492.692-8.748-.677-13.831-2-7.791-2.028-16.621-4.326-24.765-.948-8.292,3.438-12.946,11.394-17.052,18.414-2.608,4.46-5.305,9.072-8.139,10.969-1.988,1.331-7.41.47-11.767-.222-7.963-1.265-17.872-2.837-24.995,4.288-6.367,6.366-7.547,17.346-8.688,27.965-.669,6.234-1.5,13.993-3.38,16.8-2.039,3.046-6.463,6.175-10.741,9.2-2.832,2-5.825,4.125-8.586,6.52A33.98,33.98,0,0,0,80,216a33.556,33.556,0,0,0-7.37.831C80.369,122.443,159.65,48,256,48ZM80,232v47.707q0,8.217.583,16.27c-.194.006-.388.023-.583.023-13.233,0-24-14.355-24-32S66.767,232,80,232ZM62.146,403.517C66.536,398.248,72,391.691,72,379.194s-5.464-19.052-9.854-24.32C58.445,350.433,56,347.5,56,340.8s2.445-9.637,6.146-14.078c3.285-3.942,7.17-8.607,8.918-15.94A33.656,33.656,0,0,0,80,312c.764,0,1.526-.038,2.286-.089C90.41,368.869,119.71,417.847,160.671,448H71.154c-1.7-7.556-5.666-12.312-9.008-16.323C58.445,427.236,56,424.3,56,417.6S58.445,407.958,62.146,403.517Z"/><path d="M152,247.707a8,8,0,0,0,8-8,24.027,24.027,0,0,1,24-24,8,8,0,0,0,0-16,40.045,40.045,0,0,0-40,40A8,8,0,0,0,152,247.707Z"/><path d="M328,216a24.027,24.027,0,0,1,24,24,8,8,0,0,0,16,0,40.045,40.045,0,0,0-40-40,8,8,0,0,0,0,16Z"/><path d="M248,280h16a8,8,0,0,0,0-16h-6.557l6.449-38.685a8,8,0,0,0-15.784-2.63l-8,48A8,8,0,0,0,248,280Z"/><path d="M308.024,297.085a8,8,0,0,0-10.938,2.891C285.35,320.143,273.83,328,256,328s-29.35-7.857-41.086-28.024a8,8,0,1,0-13.828,8.048C210.834,324.774,225.885,344,256,344c12.952,0,23.889-3.4,33.436-10.406,7.853-5.761,14.678-13.886,21.478-25.57A8,8,0,0,0,308.024,297.085Z"/><path d="M168,280H152a8,8,0,0,0,0,16h16a8,8,0,0,0,0-16Z"/><path d="M368,288a8,8,0,0,0-8-8H344a8,8,0,0,0,0,16h16A8,8,0,0,0,368,288Z"/><circle cx="192" cy="248" r="16"/><circle cx="320" cy="248" r="16"/></svg>
