<?xml version="1.0"?>
<svg xmlns="http://www.w3.org/2000/svg" id="Outline" viewBox="0 0 512 512" width="512" height="512"><path d="M168,288.293H152a8,8,0,0,0,0,16h16a8,8,0,0,0,0-16Z"/><path d="M360,288.293H344a8,8,0,0,0,0,16h16a8,8,0,0,0,0-16Z"/><path d="M152,256a8,8,0,0,0,8-8,24.027,24.027,0,0,1,24-24,8,8,0,0,0,0-16,40.045,40.045,0,0,0-40,40A8,8,0,0,0,152,256Z"/><path d="M328,208.293a8,8,0,0,0,0,16,24.027,24.027,0,0,1,24,24,8,8,0,0,0,16,0A40.045,40.045,0,0,0,328,208.293Z"/><path d="M248,288.293h16a8,8,0,0,0,0-16h-6.556l6.447-38.685a8,8,0,0,0-15.782-2.63l-8,48A8,8,0,0,0,248,288.293Z"/><path d="M308.024,305.378a8,8,0,0,0-10.939,2.891C285.349,328.436,273.83,336.293,256,336.293s-29.349-7.857-41.085-28.024a8,8,0,0,0-13.83,8.048c9.748,16.75,24.8,35.976,54.915,35.976,12.952,0,23.889-3.4,33.435-10.406,7.854-5.761,14.679-13.886,21.48-25.57A8,8,0,0,0,308.024,305.378Z"/><circle cx="192" cy="256.293" r="16"/><circle cx="320" cy="256.293" r="16"/><path d="M455.464,241.161a201.671,201.671,0,0,0-14.1-61.307A80,80,0,1,0,341.52,74.775,204.159,204.159,0,0,0,170.5,74.764,80.017,80.017,0,1,0,70.63,179.879a201.686,201.686,0,0,0-14.094,61.282C46.526,249.894,40,264.046,40,280c0,26.467,17.944,48,40,48a34.055,34.055,0,0,0,3.543-.208C99.9,419.091,171.013,488,256,488s156.1-68.909,172.457-160.208A34.055,34.055,0,0,0,432,328c22.056,0,40-21.533,40-48C472,264.046,465.474,249.894,455.464,241.161ZM480,103.983a64.119,64.119,0,0,1-17.88,44.278,197.375,197.375,0,0,0-87.551-92.988A63.94,63.94,0,0,1,480,103.983ZM363.413,67.523a180.178,180.178,0,0,1,85.8,91.137,63.165,63.165,0,0,1-14.475,6.534,197.688,197.688,0,0,0-78.914-83.039A63.361,63.361,0,0,1,363.413,67.523ZM32,103.983A64.05,64.05,0,0,1,137.52,55.221a197.413,197.413,0,0,0-87.666,93.1A63.988,63.988,0,0,1,32,103.983ZM62.77,158.7a180.183,180.183,0,0,1,85.854-91.2,63.712,63.712,0,0,1,7.551,14.654,197.692,197.692,0,0,0-78.913,83.033A63.449,63.449,0,0,1,62.77,158.7Zm65.6-36.058C162.576,89.984,207.9,72,256,72s93.424,17.984,127.635,50.641a181.875,181.875,0,0,1,54.938,110.018A33.616,33.616,0,0,0,432,232h-3.38c-3.847-5.414-9.552-9.462-14.727-13.122-4.277-3.024-8.7-6.152-10.737-9.2-1.934-2.889-2.677-8.223-3.4-13.381-1.116-8.012-2.382-17.093-8.67-23.382s-15.37-7.554-23.382-8.671c-5.158-.719-10.492-1.463-13.381-3.4-2.834-1.9-5.532-6.51-8.14-10.97-4.106-7.021-8.76-14.978-17.051-18.416-8.145-3.379-16.977-1.082-24.768.946-5.083,1.321-10.342,2.688-13.833,2-2.81-.556-7.382-5.064-11.054-8.687C272.96,119.29,265.57,112,256,112s-16.959,7.29-23.479,13.721c-3.673,3.622-8.244,8.131-11.054,8.687-3.492.693-8.747-.677-13.83-2-7.791-2.028-16.623-4.326-24.766-.948-8.291,3.438-12.945,11.394-17.05,18.414-2.609,4.46-5.306,9.072-8.14,10.969-1.986,1.331-7.409.469-11.766-.222-7.961-1.264-17.871-2.837-25,4.288-6.366,6.366-7.545,17.346-8.687,27.965-.669,6.234-1.5,13.992-3.381,16.8-2.039,3.046-6.462,6.175-10.74,9.2-5.177,3.662-10.883,7.711-14.73,13.126H80a33.616,33.616,0,0,0-6.573.659A181.875,181.875,0,0,1,128.365,122.641ZM80,312c-13.234,0-24-14.355-24-32s10.766-32,24-32v39.707a229,229,0,0,0,1.292,24.242C80.862,311.98,80.432,312,80,312Zm336-24.293C416,389.327,344.224,472,256,472S96,389.327,96,287.707V241.879c2.061-3.372,6.775-6.707,11.351-9.943,5.463-3.866,11.112-7.862,14.794-13.362,4.07-6.079,5.005-14.779,5.995-23.99.684-6.366,1.717-15.986,4.092-18.36,1.358-1.358,7.032-.457,11.174.2,7.49,1.189,15.976,2.536,23.176-2.284,5.889-3.942,9.529-10.167,13.05-16.187,2.972-5.08,6.044-10.334,9.368-11.712,3.184-1.32,8.992.191,14.608,1.652,6.5,1.693,13.878,3.612,20.964,2.211,7.522-1.488,13.451-7.337,19.185-12.992C247.872,133.052,252.994,128,256,128s8.129,5.052,12.245,9.112c5.734,5.656,11.663,11.5,19.184,12.992,7.084,1.4,14.46-.517,20.967-2.21,5.617-1.461,11.424-2.971,14.611-1.651,3.324,1.379,6.4,6.633,9.368,11.715,3.521,6.02,7.162,12.245,13.051,16.187,5.942,3.979,13.126,4.98,20.074,5.948,5.791.808,11.78,1.643,14.276,4.139s3.33,8.484,4.137,14.276c.968,6.948,1.969,14.131,5.947,20.074,3.682,5.5,9.331,9.5,14.794,13.359,4.457,3.153,9.047,6.4,11.184,9.682.108,2.115.162,4.255.162,6.377ZM432,312c-.432,0-.862-.02-1.292-.051A229,229,0,0,0,432,287.707V248c13.234,0,24,14.355,24,32S445.234,312,432,312Z"/></svg>
