<?xml version="1.0"?>
<svg xmlns="http://www.w3.org/2000/svg" id="Outline" viewBox="0 0 512 512" width="100%" height="auto"><path d="M461.433,223.537c-7.263-46.381-30.182-92.562-63.111-127C363.467,60.077,321.446,40,280,40c-27.877,0-49.705,20.714-58.375,30.383A111.962,111.962,0,0,0,184,64c-21.411,0-50.927,17.663-77.032,46.1-29.478,32.109-49.393,72.248-56.24,113.238A53.361,53.361,0,0,0,40,256a56.265,56.265,0,0,0,2.609,17.026A110.024,110.024,0,0,0,40,296c0,12.435,3.744,19.343,7.046,25.438,2.857,5.273,5.114,9.437,5.114,17.816a40.663,40.663,0,0,1-3.588,17.828,62.024,62.024,0,0,0,0,47.525,46.028,46.028,0,0,1,0,35.628A55.963,55.963,0,0,0,43.84,464a8,8,0,0,0,8,8H460.16a8,8,0,0,0,8-8,55.963,55.963,0,0,0-4.733-23.765,46.028,46.028,0,0,1,0-35.628,62.024,62.024,0,0,0,0-47.525,40.663,40.663,0,0,1-3.588-17.828c0-8.379,2.257-12.543,5.114-17.816,3.3-6.095,7.046-13,7.046-25.438a110.039,110.039,0,0,0-2.609-22.974A56.265,56.265,0,0,0,472,256,53.413,53.413,0,0,0,461.433,223.537ZM80.559,287.978c-.186.006-.372.022-.559.022-13.234,0-24-14.355-24-32s10.766-32,24-32a18.039,18.039,0,0,1,4.98.712A226.792,226.792,0,0,0,80,272Q80,280.043,80.559,287.978ZM119.49,176H392.51A204.249,204.249,0,0,1,416,272c0,101.458-71.776,184-160,184S96,373.458,96,272C96,237.936,104.109,204.851,119.49,176Zm307.53,48.712A18.039,18.039,0,0,1,432,224c13.234,0,24,14.355,24,32s-10.766,32-24,32c-.187,0-.373-.016-.559-.022q.548-7.932.559-15.978A226.792,226.792,0,0,0,427.02,224.712ZM184,80c21.609,0,36.3,7.1,36.422,7.155a8.014,8.014,0,0,0,9.97-2.344C230.609,84.523,252.478,56,280,56c37.036,0,74.95,18.322,106.757,51.59A227.228,227.228,0,0,1,442.37,209.645a33.4,33.4,0,0,0-19.23-.444A211.92,211.92,0,0,0,404.2,164.04a8,8,0,0,0-7.589-4.04H115.4a8,8,0,0,0-7.59,4.04A211.92,211.92,0,0,0,88.86,209.2a33.483,33.483,0,0,0-18.826.308C89.873,133.646,153.952,80,184,80ZM60.423,456a43.658,43.658,0,0,1,3-9.82,62,62,0,0,0,0-47.52,46.042,46.042,0,0,1,0-35.636,56,56,0,0,0,4.732-23.77c0-12.435-3.743-19.343-7.046-25.439C58.257,308.543,56,304.378,56,296c0-.528.015-1.066.027-1.6A35.676,35.676,0,0,0,80,304c.744,0,1.487-.038,2.228-.087,5.768,41.113,22.644,79.047,48.958,109.12A176.562,176.562,0,0,0,186.778,456Zm388.149-92.976a46.042,46.042,0,0,1,0,35.636,62,62,0,0,0,0,47.52,43.658,43.658,0,0,1,3,9.82H325.222a176.562,176.562,0,0,0,55.592-42.967c26.314-30.073,43.19-68.007,48.958-109.12.741.049,1.484.087,2.228.087a35.676,35.676,0,0,0,23.973-9.6c.012.535.027,1.073.027,1.6,0,8.378-2.257,12.543-5.114,17.815-3.3,6.1-7.046,13-7.046,25.439A56,56,0,0,0,448.572,363.024Z"/><path d="M203.976,289.085a8,8,0,0,0-2.891,10.939C210.833,316.774,225.885,336,256,336c12.952,0,23.889-3.4,33.435-10.406,7.854-5.761,14.679-13.886,21.48-25.57a8,8,0,1,0-13.83-8.048C285.349,312.143,273.83,320,256,320s-29.349-7.857-41.085-28.024A8,8,0,0,0,203.976,289.085Z"/><path d="M152,240a8,8,0,0,0,8-8,24.027,24.027,0,0,1,24-24,8,8,0,0,0,0-16,40.045,40.045,0,0,0-40,40A8,8,0,0,0,152,240Z"/><path d="M328,208a24.027,24.027,0,0,1,24,24,8,8,0,0,0,16,0,40.045,40.045,0,0,0-40-40,8,8,0,0,0,0,16Z"/><path d="M248,272h16a8,8,0,0,0,0-16h-6.556l6.447-38.685a8,8,0,0,0-15.782-2.63l-8,48A8,8,0,0,0,248,272Z"/><path d="M168,288a8,8,0,0,0,0-16H152a8,8,0,0,0,0,16Z"/><path d="M360,272H344a8,8,0,0,0,0,16h16a8,8,0,0,0,0-16Z"/><circle cx="192" cy="240" r="16"/><circle cx="320" cy="240" r="16"/></svg>
