<?xml version="1.0"?>
<svg xmlns="http://www.w3.org/2000/svg" id="Outline" viewBox="0 0 512 512" width="100%" height="auto"><path d="M96,472h83.1c7.867,2.791,46.7,16,76.9,16,30.22,0,69.5-13.233,77.381-16H416a8,8,0,0,0,8-8V394.415c25.81-39.338,40-88.386,40-138.415,0-61.8-21.525-119.944-60.611-163.72C364.075,48.249,311.731,24,256,24S147.924,48.249,108.611,92.28C69.525,136.056,48,194.2,48,256c0,49.9,14.189,98.943,40,138.408V464A8,8,0,0,0,96,472ZM64,256C64,136.9,150.131,40,256,40s192,96.9,192,216c0,47.756-13.723,94.471-38.64,131.537A8.005,8.005,0,0,0,408,392v64H332a8.016,8.016,0,0,0-2.734.481C328.839,456.637,286.241,472,256,472c-30.173,0-72.318-15.354-72.74-15.509A8.024,8.024,0,0,0,180.5,456H104V392a8,8,0,0,0-1.354-4.453C77.725,350.346,64,303.628,64,256Z"/><path d="M256,456c97.047,0,176-86.131,176-192S353.047,72,256,72,80,158.131,80,264,158.953,456,256,456Zm0-368c56.535,0,106.316,32.422,134.783,81.249C351.77,159.5,285.2,144,256,144s-95.771,15.5-134.783,25.249C149.685,120.422,199.465,88,256,88ZM111.622,188.188C139.325,181.072,224.089,160,256,160s116.674,21.072,144.378,28.187A189.6,189.6,0,0,1,416,264c0,97.047-71.775,176-160,176S96,361.047,96,264A189.588,189.588,0,0,1,111.622,188.188Z"/><path d="M203.976,289.085a8,8,0,0,0-2.891,10.939C210.833,316.774,225.885,336,256,336c12.952,0,23.889-3.4,33.436-10.406,7.853-5.761,14.678-13.886,21.478-25.57a8,8,0,1,0-13.828-8.048C285.35,312.143,273.83,320,256,320s-29.349-7.857-41.085-28.024A8,8,0,0,0,203.976,289.085Z"/><path d="M152,240a8,8,0,0,0,8-8,24.027,24.027,0,0,1,24-24,8,8,0,0,0,0-16,40.045,40.045,0,0,0-40,40A8,8,0,0,0,152,240Z"/><path d="M328,208a24.027,24.027,0,0,1,24,24,8,8,0,0,0,16,0,40.045,40.045,0,0,0-40-40,8,8,0,0,0,0,16Z"/><path d="M248,272h16a8,8,0,0,0,0-16h-6.556l6.447-38.685a8,8,0,0,0-15.782-2.63l-8,48A8,8,0,0,0,248,272Z"/><path d="M168,288a8,8,0,0,0,0-16H152a8,8,0,0,0,0,16Z"/><path d="M360,272H344a8,8,0,0,0,0,16h16a8,8,0,0,0,0-16Z"/><circle cx="192" cy="240" r="16"/><circle cx="320" cy="240" r="16"/></svg>
