<?xml version="1.0"?>
<svg xmlns="http://www.w3.org/2000/svg" id="Outline" viewBox="0 0 512 512" width="512" height="512"><path d="M25.956,485.242A8,8,0,0,0,32,488a104.162,104.162,0,0,0,102.627-87.145C167.484,436.457,210.393,456,256,456s88.516-19.543,121.373-55.145A104.162,104.162,0,0,0,480,488a8,8,0,0,0,7.92-9.131L464.228,313.027a23.968,23.968,0,0,0-5.029-37.875C467.065,266.38,472,253.871,472,240a53.143,53.143,0,0,0-11.373-33.476c-8.473-51.26-33.188-97.551-69.769-130.541a200.921,200.921,0,0,0-269.716,0c-36.581,32.99-61.3,79.281-69.77,130.541A53.148,53.148,0,0,0,40,240c0,13.739,4.843,26.139,12.578,34.9a23.974,23.974,0,0,0-4.886,38.689L24.08,478.869A8,8,0,0,0,25.956,485.242ZM256,440c-88.225,0-160-82.542-160-184,0-37.994,12.762-86.193,18.778-96.037,53.606-1.383,146.269-41.856,186.459-74.753,11.6,23.557,45.446,82.1,110.722,120.338,1.4,2.69,4.041,12.771,4.041,50.452C416,357.458,344.225,440,256,440ZM64,304a8,8,0,0,1,0-16H82.24q1.137,8.087,2.839,16Zm-8-64c0-17.645,10.767-32,24-32a18.023,18.023,0,0,1,4.646.614C81.677,225.637,80,242.385,80,256q0,8.043.559,15.978c-.186.006-.372.022-.559.022C66.767,272,56,257.645,56,240Zm400,0c0,17.645-10.767,32-24,32-.187,0-.373-.016-.559-.022q.548-7.932.559-15.978c0-23.344-.964-38.206-2.818-47.776A18.113,18.113,0,0,1,432,208C445.233,208,456,222.355,456,240Zm-8.667,48a8,8,0,1,1,0,16H426.921q1.705-7.907,2.839-16Zm23.373,183.513A88.129,88.129,0,0,1,392,384h-.744a207.2,207.2,0,0,0,31.575-64h24.5c.578,0,1.15-.028,1.719-.068ZM131.856,87.865a184.924,184.924,0,0,1,248.288,0c30.133,27.175,51.6,64.174,61.531,105.563A33.648,33.648,0,0,0,432,192a34.018,34.018,0,0,0-9.447,1.37,11.316,11.316,0,0,0-2.412-1.573c-76.732-44.91-108.405-122-108.713-122.768a8,8,0,0,0-13.085-2.686c-14.96,14.96-47.346,34.24-84.518,50.314C173.641,134.034,136.527,144,112,144c-7.312,0-11.31,7.391-14.541,15.377a200.825,200.825,0,0,0-8.237,27.092c-.513,2.132-1,4.284-1.477,6.442a33.44,33.44,0,0,0-17.42.517C80.259,152.039,101.723,115.04,131.856,87.865ZM62.942,319.973c.351.015.7.027,1.058.027H89.169a207.2,207.2,0,0,0,31.575,64H120a88.129,88.129,0,0,1-78.706,87.513Z"/><path d="M152,223.707a8,8,0,0,0,8-8,24.027,24.027,0,0,1,24-24,8,8,0,0,0,0-16,40.045,40.045,0,0,0-40,40A8,8,0,0,0,152,223.707Z"/><path d="M328,176a8,8,0,0,0,0,16,24.027,24.027,0,0,1,24,24,8,8,0,0,0,16,0A40.045,40.045,0,0,0,328,176Z"/><path d="M248,256h16a8,8,0,0,0,0-16h-6.557l6.449-38.685a8,8,0,0,0-15.784-2.63l-8,48A8,8,0,0,0,248,256Z"/><path d="M308.024,273.085a8,8,0,0,0-10.938,2.891C285.35,296.143,273.83,304,256,304s-29.35-7.857-41.086-28.024a8,8,0,1,0-13.828,8.048C210.834,300.774,225.885,320,256,320c12.952,0,23.889-3.4,33.436-10.406,7.853-5.761,14.678-13.886,21.478-25.57A8,8,0,0,0,308.024,273.085Z"/><path d="M168,256H152a8,8,0,0,0,0,16h16a8,8,0,0,0,0-16Z"/><path d="M360,256H344a8,8,0,0,0,0,16h16a8,8,0,0,0,0-16Z"/><circle cx="192" cy="224" r="16"/><circle cx="320" cy="224" r="16"/></svg>
