<?xml version="1.0"?>
<svg xmlns="http://www.w3.org/2000/svg" id="Outline" viewBox="0 0 512 512" width="100%" height="100%"><path d="M152,248a8,8,0,0,0,8-8,24.027,24.027,0,0,1,24-24,8,8,0,0,0,0-16,40.045,40.045,0,0,0-40,40A8,8,0,0,0,152,248Z"/><path d="M328,200a8,8,0,0,0,0,16,24.027,24.027,0,0,1,24,24,8,8,0,0,0,16,0A40.045,40.045,0,0,0,328,200Z"/><path d="M168,280H152a8,8,0,0,0,0,16h16a8,8,0,0,0,0-16Z"/><path d="M360,280H344a8,8,0,0,0,0,16h16a8,8,0,0,0,0-16Z"/><path d="M444.874,218.565,431.5,94.5c-.008-.074-.017-.149-.027-.224A72.267,72.267,0,0,0,360.135,32H151.865a72.267,72.267,0,0,0-71.34,62.271c-.01.075-.019.15-.027.224L67.126,218.565C51.369,225.013,40,242.937,40,264c0,26.468,17.944,48,40,48,.744,0,1.487-.038,2.228-.087,5.768,41.113,22.644,79.047,48.958,109.12C164.458,459.059,208.785,480,256,480s91.542-20.941,124.814-58.967c26.314-30.073,43.19-68.007,48.958-109.12.741.049,1.484.087,2.228.087,22.056,0,40-21.532,40-48C472,242.937,460.631,225.013,444.874,218.565ZM151.865,48h208.27a56.207,56.207,0,0,1,55.472,48.325L428.526,216.2a34.216,34.216,0,0,0-5.415,1.008c-12.113-41.683-36.14-78.242-69.187-103.425a8,8,0,0,0-11.335,1.68C326.563,137.659,292.575,152,256,152s-70.563-14.341-86.589-36.536a8,8,0,0,0-11.335-1.68C125.029,138.967,101,175.526,88.889,217.209a34.216,34.216,0,0,0-5.415-1.008L96.393,96.325A56.207,56.207,0,0,1,151.865,48ZM80,296c-13.234,0-24-14.355-24-32s10.766-32,24-32a18.006,18.006,0,0,1,4.985.714A226.438,226.438,0,0,0,80,280q0,8.043.559,15.978C80.373,295.984,80.187,296,80,296ZM256,464c-88.224,0-160-82.542-160-184,0-59.027,24.43-113.975,65.71-148.638C182.143,154.136,217.381,168,256,168s73.857-13.864,94.29-36.638C391.57,166.025,416,220.973,416,280,416,381.458,344.224,464,256,464ZM432,296c-.187,0-.373-.016-.559-.022q.548-7.933.559-15.978a226.438,226.438,0,0,0-4.985-47.286A18.006,18.006,0,0,1,432,232c13.234,0,24,14.355,24,32S445.234,296,432,296Z"/><circle cx="192" cy="248" r="16"/><circle cx="320" cy="248" r="16"/><path d="M272,280h-8a8,8,0,0,0,0-16h-6.556l6.447-38.685a8,8,0,1,0-15.782-2.63l-8,48A8,8,0,0,0,248,280h-8a56.063,56.063,0,0,0-56,56,8,8,0,0,0,8,8H320a8,8,0,0,0,8-8A56.063,56.063,0,0,0,272,280Zm-71.2,48A40.071,40.071,0,0,1,240,296h32a40.071,40.071,0,0,1,39.2,32Z"/></svg>
