<?xml version="1.0"?>
<svg xmlns="http://www.w3.org/2000/svg" id="Outline" viewBox="0 0 512 512" width="512" height="512"><path d="M440.343,159.991A24,24,0,0,0,440,112H415.633A88.118,88.118,0,0,0,328,32H184a88.118,88.118,0,0,0-87.633,80H72a24,24,0,0,0-.344,47.991,222.4,222.4,0,0,0-21.677,72.34A53.6,53.6,0,0,0,40,264c0,26.468,17.944,48,40,48,.744,0,1.487-.038,2.228-.087C88,353.026,104.872,390.96,131.186,421.032,164.458,459.059,208.785,480,256,480s91.542-20.941,124.814-58.968c26.314-30.072,43.191-68.006,48.958-109.119.741.049,1.484.087,2.228.087,22.056,0,40-21.532,40-48a53.6,53.6,0,0,0-9.979-31.669A222.382,222.382,0,0,0,440.343,159.991ZM396.815,160h25.45a201.084,201.084,0,0,1,21.211,58.023,33.436,33.436,0,0,0-20.353-.817A210.285,210.285,0,0,0,396.815,160ZM184,48H328a72.1,72.1,0,0,1,71.545,64H112.455A72.1,72.1,0,0,1,184,48ZM64,136a8.009,8.009,0,0,1,8-8H440a8,8,0,0,1,0,16H72A8.009,8.009,0,0,1,64,136Zm24.877,81.206a33.44,33.44,0,0,0-20.354.817A201.108,201.108,0,0,1,89.735,160h25.45A210.285,210.285,0,0,0,88.877,217.206ZM80,296c-13.234,0-24-14.355-24-32s10.766-32,24-32a18.036,18.036,0,0,1,4.984.713A226.444,226.444,0,0,0,80,280q0,8.043.559,15.978C80.373,295.984,80.187,296,80,296ZM256,464c-88.224,0-160-82.542-160-184,0-44.173,13.729-86.622,38.729-120H377.271c25,33.377,38.729,75.827,38.729,120C416,381.458,344.225,464,256,464ZM432,296c-.187,0-.373-.016-.559-.022q.548-7.933.559-15.978a226.444,226.444,0,0,0-4.984-47.287A18.036,18.036,0,0,1,432,232c13.233,0,24,14.355,24,32S445.233,296,432,296Z"/><path d="M152,248a8,8,0,0,0,8-8,24.027,24.027,0,0,1,24-24,8,8,0,0,0,0-16,40.045,40.045,0,0,0-40,40A8,8,0,0,0,152,248Z"/><path d="M328,216a24.028,24.028,0,0,1,24,24,8,8,0,0,0,16,0,40.045,40.045,0,0,0-40-40,8,8,0,0,0,0,16Z"/><path d="M248,280h16a8,8,0,0,0,0-16h-6.556l6.447-38.685a8,8,0,1,0-15.782-2.63l-8,48A8,8,0,0,0,248,280Z"/><path d="M168,280H152a8,8,0,0,0,0,16h16a8,8,0,0,0,0-16Z"/><path d="M360,280H344a8,8,0,0,0,0,16h16a8,8,0,0,0,0-16Z"/><circle cx="192" cy="248" r="16"/><circle cx="320" cy="248" r="16"/><path d="M290.258,314.43C283.421,321.478,274.54,328,256,328s-27.421-6.522-34.257-13.57a8,8,0,0,0-11.486,11.14C222.621,338.316,236.728,344,256,344s33.379-5.684,45.742-18.43a8,8,0,1,0-11.484-11.14Z"/></svg>
