<?xml version="1.0"?>
<svg xmlns="http://www.w3.org/2000/svg" id="Outline" viewBox="0 0 512 512" width="100%" height="auto"><path d="M152,208a8,8,0,0,0,8-8,24.027,24.027,0,0,1,24-24,8,8,0,0,0,0-16,40.045,40.045,0,0,0-40,40A8,8,0,0,0,152,208Z"/><path d="M328,176a24.027,24.027,0,0,1,24,24,8,8,0,0,0,16,0,40.045,40.045,0,0,0-40-40,8,8,0,0,0,0,16Z"/><path d="M152,256h16a8,8,0,0,0,0-16H152a8,8,0,0,0,0,16Z"/><path d="M360,240H344a8,8,0,0,0,0,16h16a8,8,0,0,0,0-16Z"/><path d="M432,176a34.022,34.022,0,0,0-9.509,1.388A209.881,209.881,0,0,0,380.864,100.1C347.6,61.344,303.253,40,256,40s-91.6,21.344-124.864,60.1a209.881,209.881,0,0,0-41.627,77.287A34.022,34.022,0,0,0,80,176c-22.056,0-40,21.532-40,48s17.944,48,40,48c.421,0,.84-.034,1.26-.049,4.235,47.638,19.055,92.8,42.107,126.987C155.592,446.735,201.457,472,256,472s100.408-25.265,132.633-73.062c23.052-34.19,37.872-79.349,42.107-126.987.42.015.839.049,1.26.049,22.056,0,40-21.532,40-48S454.056,176,432,176ZM256,56c52.282,0,98.785,29.584,128,75.235V255.141a40.06,40.06,0,0,1-35.218,39.715,114.352,114.352,0,0,0-19.125-25.373,101.4,101.4,0,0,0-63.26-29.849A8,8,0,0,0,264,224h-6.556l6.447-38.685a8,8,0,1,0-15.782-2.63l-8,48a7.982,7.982,0,0,0,5.494,8.94,101.822,101.822,0,0,0-63.26,29.858,114.352,114.352,0,0,0-19.125,25.373A40.06,40.06,0,0,1,128,255.141V131.235C157.215,85.584,203.718,56,256,56ZM80,256c-13.234,0-24-14.355-24-32s10.766-32,24-32a18.071,18.071,0,0,1,5.51.868A236.051,236.051,0,0,0,80,243.777q0,6.119.244,12.213C80.163,255.991,80.082,256,80,256ZM375.367,389.993C355.065,420.105,317.876,456,256,456s-99.065-35.895-119.367-66.007C110.81,351.692,96,298.4,96,243.777a213.8,213.8,0,0,1,16-81.8v93.168a56.063,56.063,0,0,0,56,56,8.032,8.032,0,0,0,7.345-4.829,93.793,93.793,0,0,1,18.735-25.935c16.955-16.745,37.788-25.236,61.92-25.236s44.965,8.491,61.92,25.236a93.848,93.848,0,0,1,18.727,25.915A8,8,0,0,0,344,311.141a56.063,56.063,0,0,0,56-56V161.973a213.8,213.8,0,0,1,16,81.8C416,298.4,401.19,351.692,375.367,389.993ZM432,256c-.082,0-.163-.009-.244-.01q.234-6.093.244-12.213a236.051,236.051,0,0,0-5.51-50.909A18.071,18.071,0,0,1,432,192c13.234,0,24,14.355,24,32S445.234,256,432,256Z"/><circle cx="192" cy="208" r="16"/><circle cx="320" cy="208" r="16"/><path d="M292.9,273.68A8,8,0,0,0,281.68,275.1C275.669,282.841,269,288,256,288s-19.669-5.159-25.68-12.9a8,8,0,1,0-12.64,9.808c6.9,8.891,17.488,19.1,38.32,19.1s31.421-10.2,38.32-19.1A8,8,0,0,0,292.9,273.68Z"/></svg>
