<?xml version="1.0"?>
<svg xmlns="http://www.w3.org/2000/svg" id="Outline" viewBox="0 0 512 512" width="512" height="512"><path d="M455.243,216.972A79.984,79.984,0,0,0,392,88c-2.161,0-4.369.1-6.658.315A79.89,79.89,0,0,0,256,62.87,79.889,79.889,0,0,0,126.659,88.315C124.371,88.1,122.163,88,120,88A79.978,79.978,0,0,0,56.761,216.969C46.624,225.685,40,239.927,40,256c0,26.468,17.944,48,40,48,.744,0,1.487-.038,2.228-.087C88,345.026,104.872,382.96,131.186,413.032,164.458,451.059,208.785,472,256,472s91.542-20.941,124.814-58.968c26.314-30.072,43.191-68.006,48.958-109.119.741.049,1.484.087,2.228.087,22.056,0,40-21.532,40-48C472,239.929,465.378,225.689,455.243,216.972ZM80,272q0,8.043.559,15.978c-.186.006-.372.022-.559.022-13.234,0-24-14.355-24-32s10.766-32,24-32a18.057,18.057,0,0,1,4.934.7A227.7,227.7,0,0,0,80,272Zm0-64a33.612,33.612,0,0,0-8.937,1.223,63.792,63.792,0,0,1,59.493-104.271,8,8,0,0,0,8.9-5.341A63.9,63.9,0,0,1,242.944,72.539c-42.287,3.5-81.572,23.929-111.758,58.429a205.233,205.233,0,0,0-42.374,78.219A33.96,33.96,0,0,0,80,208ZM256,456c-88.224,0-160-82.542-160-184S167.776,88,256,88s160,82.542,160,184S344.225,456,256,456ZM380.814,130.968c-30.186-34.5-69.471-54.935-111.758-58.429A63.9,63.9,0,0,1,372.548,99.611a8,8,0,0,0,8.894,5.341,63.937,63.937,0,0,1,59.5,104.271,33.28,33.28,0,0,0-17.748-.036A205.236,205.236,0,0,0,380.814,130.968ZM432,288c-.187,0-.373-.016-.559-.022q.548-7.933.559-15.978a227.7,227.7,0,0,0-4.934-47.3A18.057,18.057,0,0,1,432,224c13.233,0,24,14.355,24,32S445.233,288,432,288Z"/><path d="M152,240a8,8,0,0,0,8-8,24.027,24.027,0,0,1,24-24,8,8,0,0,0,0-16,40.045,40.045,0,0,0-40,40A8,8,0,0,0,152,240Z"/><path d="M328,192a8,8,0,0,0,0,16,24.028,24.028,0,0,1,24,24,8,8,0,0,0,16,0A40.045,40.045,0,0,0,328,192Z"/><path d="M168,272H152a8,8,0,0,0,0,16h16a8,8,0,0,0,0-16Z"/><path d="M360,272H344a8,8,0,0,0,0,16h16a8,8,0,0,0,0-16Z"/><circle cx="192" cy="240" r="16"/><circle cx="320" cy="240" r="16"/><path d="M272,272h-8a8,8,0,0,0,0-16h-6.556l6.447-38.685a8,8,0,1,0-15.782-2.63l-8,48A8,8,0,0,0,248,272h-8a56.063,56.063,0,0,0-56,56,8,8,0,0,0,8,8H320a8,8,0,0,0,8-8A56.063,56.063,0,0,0,272,272Zm-71.2,48A40.071,40.071,0,0,1,240,288h32a40.071,40.071,0,0,1,39.2,32Z"/></svg>
