<?xml version="1.0"?>
<svg xmlns="http://www.w3.org/2000/svg" id="Outline" viewBox="0 0 512 512" width="512" height="512"><path d="M168,288H152a8,8,0,0,0,0,16h16a8,8,0,0,0,0-16Z"/><path d="M360,288H344a8,8,0,0,0,0,16h16a8,8,0,0,0,0-16Z"/><path d="M440,216.966V168a88.1,88.1,0,0,0-88-88h-.581A56.078,56.078,0,0,0,296,32H120a8,8,0,0,0-8,8,103.354,103.354,0,0,0,11.672,47.83A87.758,87.758,0,0,0,72,168v48.966C53.764,221.426,40,240.819,40,264c0,26.468,17.944,48,40,48,.764,0,1.526-.038,2.286-.089C95.863,407.1,168.585,480,256,480s160.137-72.9,173.714-168.089c.76.051,1.522.089,2.286.089,22.056,0,40-21.532,40-48C472,240.819,458.235,221.426,440,216.966ZM424,168v48.963c-.279.068-.553.155-.83.229-12.881-44.5-39.292-83.035-75.307-108.1A55.455,55.455,0,0,0,351.419,96H352A72.081,72.081,0,0,1,424,168Zm-96,16a48.017,48.017,0,0,0-41.543,24H225.542a47.953,47.953,0,0,0-83.084,0H108.636c11.414-31.012,30.187-58.234,54.754-78.322A103.36,103.36,0,0,0,216,144h80a55.911,55.911,0,0,0,43.729-21.076c28.8,20.366,50.82,50.274,63.626,85.076H369.543A48.017,48.017,0,0,0,328,184Zm0,16a32,32,0,1,1-32,32A32.036,32.036,0,0,1,328,200ZM216,232a32,32,0,1,1-32-32A32.036,32.036,0,0,1,216,232ZM296,48a40,40,0,0,1,0,80H216a88.12,88.12,0,0,1-87.64-80ZM132.222,101.546a104.859,104.859,0,0,0,17.613,18.634C120.979,145,99.887,178.955,88.822,217.19c-.274-.074-.546-.16-.822-.227V168A71.814,71.814,0,0,1,132.222,101.546ZM80,296c-13.234,0-24-14.355-24-32s10.766-32,24-32a18.057,18.057,0,0,1,4.934.7A226.2,226.2,0,0,0,80,279.707q0,8.217.583,16.27C80.389,295.983,80.195,296,80,296ZM256,464c-88.224,0-160-82.674-160-184.293A209.487,209.487,0,0,1,103.493,224h33.186a48,48,0,1,0,94.642,0H247.89l-7.781,46.685A8,8,0,0,0,248,280h16a8,8,0,0,0,0-16h-6.556l6.447-38.685a8.047,8.047,0,0,0,.1-1.315h16.687a48,48,0,1,0,94.642,0H408.5a209.437,209.437,0,0,1,7.5,55.707C416,381.326,344.225,464,256,464ZM432,296c-.195,0-.389-.017-.583-.023q.572-8.052.583-16.27a226.132,226.132,0,0,0-4.922-47.012A18.051,18.051,0,0,1,432,232c13.233,0,24,14.355,24,32S445.233,296,432,296Z"/><circle cx="184" cy="232" r="16"/><circle cx="328" cy="232" r="16"/><path d="M290.258,314.43C283.421,321.478,274.54,328,256,328s-27.421-6.522-34.257-13.57a8,8,0,0,0-11.486,11.14C222.621,338.316,236.728,344,256,344s33.379-5.684,45.742-18.43a8,8,0,1,0-11.484-11.14Z"/></svg>
