<?xml version="1.0"?>
<svg xmlns="http://www.w3.org/2000/svg" id="Outline" viewBox="0 0 512 512" width="100%" height="100%"><path d="M152,248a8,8,0,0,0,8-8,24.027,24.027,0,0,1,24-24,8,8,0,0,0,0-16,40.045,40.045,0,0,0-40,40A8,8,0,0,0,152,248Z"/><path d="M328,200a8,8,0,0,0,0,16,24.028,24.028,0,0,1,24,24,8,8,0,0,0,16,0A40.045,40.045,0,0,0,328,200Z"/><path d="M248,280h16a8,8,0,0,0,0-16h-6.556l6.447-38.685a8,8,0,1,0-15.782-2.63l-8,48A8,8,0,0,0,248,280Z"/><path d="M168,280H152a8,8,0,0,0,0,16h16a8,8,0,0,0,0-16Z"/><path d="M360,280H344a8,8,0,0,0,0,16h16a8,8,0,0,0,0-16Z"/><path d="M439.905,216.946c-.068-3.676-.236-96.946-.236-96.946a88.025,88.025,0,0,0-87.85-88H160.181a88.025,88.025,0,0,0-87.85,88s-.168,93.27-.236,96.945C53.813,221.361,40,240.779,40,264c0,26.468,17.944,48,40,48,.764,0,1.525-.038,2.286-.089C95.863,407.1,168.585,480,256,480s160.137-72.9,173.714-168.089c.76.051,1.522.089,2.286.089,22.056,0,40-21.532,40-48C472,240.779,458.187,221.361,439.905,216.946Zm-351.574-10.3V120a72.006,72.006,0,0,1,71.85-72H351.819a72.006,72.006,0,0,1,71.85,72s.168,93.463.234,96.983c-.163.04-.321.095-.483.137a203.592,203.592,0,0,0-21.257-49.233c-19.2-31.89-46.473-56.5-78.862-71.174a8,8,0,0,0-10.975,5.024c-5.3,17.975-24.386,34.575-53.744,46.743C228.212,161.067,188.939,168,148,168c-3.774,0-7.629-.07-11.455-.211A40.41,40.41,0,0,0,97.651,192.37a216.6,216.6,0,0,0-8.866,24.809c-.23-.061-.456-.139-.687-.2.065-3.52.148-6.784.194-8.592C88.317,207.394,88.331,206.765,88.331,206.648ZM80,296c-13.234,0-24-14.355-24-32s10.766-32,24-32a18.041,18.041,0,0,1,4.894.687A225.815,225.815,0,0,0,80,279.707q0,8.217.583,16.27C80.389,295.983,80.195,296,80,296ZM256,464c-88.224,0-160-82.674-160-184.293a204.655,204.655,0,0,1,16.36-81.04,24.474,24.474,0,0,1,22.661-14.9q.468,0,.94.017c4.02.147,8.071.221,12.039.221,42.993,0,84.441-7.365,116.708-20.739,29.972-12.422,50.357-28.982,59.6-48.271,26.093,13.6,48.157,34.6,64.147,61.151C406.476,206.063,416,241.876,416,279.706,416,381.326,344.225,464,256,464ZM432,296c-.195,0-.389-.017-.583-.023q.572-8.052.583-16.271a231.581,231.581,0,0,0-4.77-47.056A18.04,18.04,0,0,1,432,232c13.233,0,24,14.355,24,32S445.233,296,432,296Z"/><circle cx="192" cy="248" r="16"/><circle cx="320" cy="248" r="16"/><path d="M290.258,314.43C283.421,321.478,274.54,328,256,328s-27.421-6.522-34.257-13.57a8,8,0,0,0-11.486,11.14C222.621,338.316,236.728,344,256,344s33.379-5.684,45.742-18.43a8,8,0,1,0-11.484-11.14Z"/></svg>
