<?xml version="1.0"?>
<svg xmlns="http://www.w3.org/2000/svg" id="Outline" viewBox="0 0 512 512" width="100%" height="100%"><path d="M152,240a8,8,0,0,0,8-8,24.027,24.027,0,0,1,24-24,8,8,0,0,0,0-16,40.045,40.045,0,0,0-40,40A8,8,0,0,0,152,240Z"/><path d="M328,192a8,8,0,0,0,0,16,24.028,24.028,0,0,1,24,24,8,8,0,0,0,16,0A40.045,40.045,0,0,0,328,192Z"/><path d="M248,272h16a8,8,0,0,0,0-16h-6.556l6.447-38.685a8,8,0,1,0-15.782-2.63l-8,48A8,8,0,0,0,248,272Z"/><path d="M168,272H152a8,8,0,0,0,0,16h16a8,8,0,0,0,0-16Z"/><path d="M360,272H344a8,8,0,0,0,0,16h16a8,8,0,0,0,0-16Z"/><path d="M456,217.626V168A128.146,128.146,0,0,0,328,40a126.85,126.85,0,0,0-72,22.155A126.848,126.848,0,0,0,184,40,128.145,128.145,0,0,0,56,168v49.626c-9.709,8.766-16,22.7-16,38.374,0,26.468,17.944,48,40,48,.744,0,1.487-.038,2.228-.087,5.768,41.113,22.644,79.046,48.958,109.119C164.458,451.059,208.785,472,256,472s91.542-20.941,124.814-58.968c26.314-30.073,43.191-68.006,48.958-109.119.741.049,1.484.087,2.228.087,22.056,0,40-21.532,40-48C472,240.33,465.709,226.392,456,217.626ZM72,168A112.005,112.005,0,0,1,251.2,78.391a8,8,0,0,0,9.61,0A112.005,112.005,0,0,1,440,168v40.966a33.585,33.585,0,0,0-8-.966,33.944,33.944,0,0,0-7.4.84c-.315-1.082-.629-2.165-.971-3.248a8,8,0,0,0-3.715-4.57c-21.437-12.024-41.455-21.111-60.814-29.9-38.74-17.586-72.2-32.773-96.812-64.069a8,8,0,0,0-12.576,0c-24.616,31.3-58.072,46.483-96.812,64.069-19.358,8.788-39.377,17.875-60.814,29.9a8,8,0,0,0-3.715,4.57c-.342,1.083-.656,2.166-.971,3.248A33.951,33.951,0,0,0,80,208a33.585,33.585,0,0,0-8,.966Zm8,120c-13.234,0-24-14.355-24-32s10.766-32,24-32a18.077,18.077,0,0,1,3.7.4C80.543,241.259,80,257.589,80,272q0,8.043.559,15.978C80.373,287.984,80.187,288,80,288ZM256,456c-88.224,0-160-82.542-160-184,0-24.689,2.021-42.457,6.716-58.582,19.809-10.935,38.6-19.465,56.8-27.726,37.561-17.05,70.391-31.955,96.486-61.237,26.1,29.282,58.925,44.187,96.486,61.237,18.2,8.261,36.989,16.791,56.8,27.726C413.979,229.544,416,247.312,416,272,416,373.458,344.225,456,256,456ZM432,288c-.187,0-.373-.016-.559-.022q.548-7.933.559-15.978c0-14.411-.543-30.74-3.7-47.6a18.077,18.077,0,0,1,3.7-.4c13.233,0,24,14.355,24,32S445.233,288,432,288Z"/><circle cx="192" cy="240" r="16"/><circle cx="320" cy="240" r="16"/><path d="M290.258,306.43C283.421,313.478,274.54,320,256,320s-27.421-6.522-34.257-13.57a8,8,0,0,0-11.486,11.14C222.621,330.316,236.728,336,256,336s33.379-5.684,45.742-18.43a8,8,0,1,0-11.484-11.14Z"/></svg>
