<?xml version="1.0"?>
<svg xmlns="http://www.w3.org/2000/svg" id="Outline" viewBox="0 0 512 512" width="100%" height="auto"><path d="M152,256a8,8,0,0,0,8-8,24.027,24.027,0,0,1,24-24,8,8,0,0,0,0-16,40.045,40.045,0,0,0-40,40A8,8,0,0,0,152,256Z"/><path d="M328,208a8,8,0,0,0,0,16,24.027,24.027,0,0,1,24,24,8,8,0,0,0,16,0A40.045,40.045,0,0,0,328,208Z"/><path d="M248,288h16a8,8,0,0,0,0-16h-6.556l6.447-38.685a8,8,0,1,0-15.782-2.63l-8,48A8,8,0,0,0,248,288Z"/><path d="M168,288H152a8,8,0,0,0,0,16h16a8,8,0,0,0,0-16Z"/><path d="M360,288H344a8,8,0,0,0,0,16h16a8,8,0,0,0,0-16Z"/><path d="M456,233.626V232c0-110.28-89.72-200-200-200S56,121.72,56,232v1.626c-9.709,8.766-16,22.7-16,38.374,0,26.468,17.944,48,40,48a34.056,34.056,0,0,0,3.47-.2c6.728,38.07,23.093,73.092,47.716,101.232C164.458,459.059,208.785,480,256,480s91.542-20.941,124.814-58.968C405.437,392.892,421.8,357.87,428.53,319.8a34.056,34.056,0,0,0,3.47.2c22.056,0,40-21.532,40-48C472,256.33,465.709,242.392,456,233.626ZM256,48c99.091,0,180.123,78.739,183.851,176.934A33.609,33.609,0,0,0,432,224a33.972,33.972,0,0,0-5.4.433c-.857-3.6-1.83-7.222-2.973-10.841a8,8,0,0,0-3.715-4.57C350.4,170.029,297.364,127.647,262.288,83.054a8,8,0,0,0-12.576,0C214.637,127.646,161.6,170.028,92.086,209.022a8,8,0,0,0-3.715,4.57c-1.143,3.619-2.116,7.236-2.973,10.841A33.972,33.972,0,0,0,80,224a33.609,33.609,0,0,0-7.851.934C75.877,126.739,156.909,48,256,48ZM80,304c-13.233,0-24-14.355-24-32s10.767-32,24-32a17.8,17.8,0,0,1,2.411.182A278.073,278.073,0,0,0,80,280a230.592,230.592,0,0,0,1.248,23.951C80.833,303.98,80.417,304,80,304ZM256,464c-88.224,0-160-82.542-160-184,0-24.7,2.023-42.475,6.722-58.6C168.734,184.046,220.237,143.485,256,100.7c35.764,42.788,87.267,83.349,153.278,120.7,4.7,16.129,6.722,33.9,6.722,58.6C416,381.458,344.224,464,256,464ZM432,304c-.417,0-.833-.02-1.248-.049A230.592,230.592,0,0,0,432,280a278.073,278.073,0,0,0-2.411-39.818A17.8,17.8,0,0,1,432,240c13.233,0,24,14.355,24,32S445.233,304,432,304Z"/><circle cx="192" cy="256" r="16"/><circle cx="320" cy="256" r="16"/><path d="M290.257,322.43C283.421,329.478,274.54,336,256,336s-27.421-6.522-34.257-13.57a8,8,0,0,0-11.486,11.14C222.621,346.316,236.728,352,256,352s33.379-5.684,45.743-18.43a8,8,0,0,0-11.486-11.14Z"/></svg>
