<?xml version="1.0"?>
<svg xmlns="http://www.w3.org/2000/svg" id="Outline" viewBox="0 0 512 512" width="512" height="512"><path d="M152,248a8,8,0,0,0,8-8,24.028,24.028,0,0,1,24-24,8,8,0,0,0,0-16,40.045,40.045,0,0,0-40,40A8,8,0,0,0,152,248Z"/><path d="M328,216a24.028,24.028,0,0,1,24,24,8,8,0,0,0,16,0,40.045,40.045,0,0,0-40-40,8,8,0,0,0,0,16Z"/><path d="M248,280h16a8,8,0,0,0,0-16h-6.557l6.449-38.685a8,8,0,0,0-15.784-2.63l-8,48A8,8,0,0,0,248,280Z"/><path d="M168,280H152a8,8,0,0,0,0,16h16a8,8,0,0,0,0-16Z"/><path d="M360,280H344a8,8,0,0,0,0,16h16a8,8,0,0,0,0-16Z"/><path d="M80,312c.744,0,1.487-.038,2.228-.087C88,353.026,104.872,390.96,131.186,421.032,164.458,459.059,208.784,480,256,480s91.542-20.941,124.814-58.968c26.314-30.072,43.191-68.006,48.958-109.119.741.049,1.484.087,2.228.087,22.056,0,40-21.532,40-48,0-23.181-13.765-42.574-32-47.034V192h8a8,8,0,0,0,8-8c0-28.771-9.442-56.467-26.588-77.985C412.188,84.4,388.972,72,365.715,72H347.1c-29.406-26.183-70.3-40-118.527-40A176.155,176.155,0,0,0,112.1,75.674c-31.936,28.085-51.845,66.267-56.059,107.513A8,8,0,0,0,64,192h8v24.966C53.765,221.426,40,240.819,40,264,40,290.468,57.944,312,80,312Zm376-48c0,17.645-10.767,32-24,32-.187,0-.373-.016-.559-.022q.548-7.933.559-15.978a247.173,247.173,0,0,0-4.7-47.369A18.05,18.05,0,0,1,432,232C445.233,232,456,246.355,456,264Zm-32-47.037-.246.061c-2.19-8.429-4.81-16.789-7.84-25.024H424ZM365.715,88c18.357,0,37.013,10.2,51.183,27.985C430,132.428,438.114,153.938,439.71,176h-80.3l-6.769-88Zm-21.692,96.613A8,8,0,0,0,352,192h46.793C410.057,220.516,416,250.826,416,280c0,101.458-71.775,184-160,184S96,381.458,96,280c0-29.174,5.943-59.484,17.207-88H304a8,8,0,0,0,7.467-5.128l27.275-70.916ZM122.666,87.688A160.167,160.167,0,0,1,228.571,48c43.171,0,79.676,11.835,105.979,34.286L298.506,176H73.132C78.689,142.172,96.063,111.083,122.666,87.688ZM96.086,192c-3.03,8.235-5.65,16.6-7.84,25.024L88,216.963V192ZM80,232a18.05,18.05,0,0,1,4.7.631A247.173,247.173,0,0,0,80,280q0,8.043.559,15.978c-.186.006-.372.022-.559.022-13.233,0-24-14.355-24-32S66.767,232,80,232Z"/><circle cx="192" cy="248" r="16"/><circle cx="320" cy="248" r="16"/><path d="M290.258,314.43C283.421,321.478,274.54,328,256,328s-27.421-6.522-34.258-13.57a8,8,0,0,0-11.484,11.14C222.621,338.316,236.729,344,256,344s33.379-5.684,45.742-18.43a8,8,0,1,0-11.484-11.14Z"/></svg>
