<?xml version="1.0"?>
<svg xmlns="http://www.w3.org/2000/svg" id="Outline" viewBox="0 0 512 512" width="512" height="512"><path d="M152,248a8,8,0,0,0,8-8,24.027,24.027,0,0,1,24-24,8,8,0,0,0,0-16,40.045,40.045,0,0,0-40,40A8,8,0,0,0,152,248Z"/><path d="M328,216a24.027,24.027,0,0,1,24,24,8,8,0,0,0,16,0,40.045,40.045,0,0,0-40-40,8,8,0,0,0,0,16Z"/><path d="M272,272a8,8,0,0,0-8-8h-6.556l6.447-38.685a8,8,0,1,0-15.782-2.63l-8,48A8,8,0,0,0,248,280h16A8,8,0,0,0,272,272Z"/><path d="M152,296h16a8,8,0,0,0,0-16H152a8,8,0,0,0,0,16Z"/><path d="M360,280H344a8,8,0,0,0,0,16h16a8,8,0,0,0,0-16Z"/><path d="M432,216a34.025,34.025,0,0,0-9.582,1.409c-11.213-37.742-31.887-71.235-59.919-95.912l3.647-4.376a8,8,0,0,0-1.215-11.421c-14.049-11-32.891-19.9-53.523-25.787a55.994,55.994,0,0,0-110.816,0C179.96,85.8,161.118,94.7,147.069,105.7a8,8,0,0,0-1.215,11.421l3.65,4.38c-28,24.662-48.685,58.184-59.908,95.913A33.978,33.978,0,0,0,80,216c-22.056,0-40,21.532-40,48s17.944,48,40,48c.57,0,1.137-.038,1.7-.066,5.219,42.884,22.36,81.891,49.575,111.9C164.117,460.055,208.41,480,256,480s91.883-19.945,124.72-56.161c27.215-30.014,44.356-69.021,49.575-111.9.568.028,1.135.066,1.7.066,22.056,0,40-21.532,40-48S454.056,216,432,216ZM256,48a40.066,40.066,0,0,1,38.078,27.763,194.538,194.538,0,0,0-76.156,0A40.066,40.066,0,0,1,256,48Zm0,40c33.361,0,68.562,9.847,92.349,25.485L316.253,152H195.747l-32.1-38.515C187.438,97.847,222.639,88,256,88Zm-96.25,45.8,26.1,31.325A8,8,0,0,0,192,168H320a8,8,0,0,0,6.146-2.879l26.109-31.331A177.086,177.086,0,0,1,384,171.086V296a40.06,40.06,0,0,1-35.218,39.716,114.329,114.329,0,0,0-19.125-25.373C304.578,285.265,275.76,280,256,280c-35.8,0-59.814,16.5-73.657,30.343a114.329,114.329,0,0,0-19.125,25.373A40.06,40.06,0,0,1,128,296V171.147A177.078,177.078,0,0,1,159.75,133.8ZM80,296c-13.234,0-24-14.355-24-32s10.766-32,24-32a18.051,18.051,0,0,1,5.591.892A234.2,234.2,0,0,0,80,283.777c0,4.1.118,8.165.328,12.21C80.218,295.989,80.109,296,80,296ZM368.867,413.092C339.1,445.921,299.018,464,256,464s-83.1-18.079-112.867-50.908C112.739,379.57,96,333.646,96,283.777a214.91,214.91,0,0,1,16-81.818V296a56.063,56.063,0,0,0,56,56,8.031,8.031,0,0,0,7.345-4.829,93.793,93.793,0,0,1,18.735-25.935C211.035,304.491,231.868,296,256,296s44.965,8.491,61.92,25.236a93.848,93.848,0,0,1,18.727,25.915A8,8,0,0,0,344,352a56.063,56.063,0,0,0,56-56V201.906a214.92,214.92,0,0,1,16,81.871C416,333.646,399.261,379.57,368.867,413.092ZM432,296c-.109,0-.218-.011-.328-.013.21-4.045.328-8.113.328-12.21a234.6,234.6,0,0,0-5.573-50.89A18.056,18.056,0,0,1,432,232c13.234,0,24,14.355,24,32S445.234,296,432,296Z"/><circle cx="192" cy="248" r="16"/><circle cx="320" cy="248" r="16"/><path d="M292.9,313.68A8,8,0,0,0,281.68,315.1C275.669,322.841,269,328,256,328s-19.669-5.159-25.68-12.9a8,8,0,1,0-12.64,9.808c6.9,8.891,17.488,19.1,38.32,19.1s31.421-10.2,38.32-19.1A8,8,0,0,0,292.9,313.68Z"/></svg>
