<?xml version="1.0"?>
<svg xmlns="http://www.w3.org/2000/svg" id="Outline" viewBox="0 0 512 512" width="512" height="512"><path d="M152,216a8,8,0,0,0,8-8,24.028,24.028,0,0,1,24-24,8,8,0,0,0,0-16,40.045,40.045,0,0,0-40,40A8,8,0,0,0,152,216Z"/><path d="M328,168a8,8,0,0,0,0,16,24.028,24.028,0,0,1,24,24,8,8,0,0,0,16,0A40.045,40.045,0,0,0,328,168Z"/><path d="M168,248H152a8,8,0,0,0,0,16h16a8,8,0,0,0,0-16Z"/><path d="M360,248H344a8,8,0,0,0,0,16h16a8,8,0,0,0,0-16Z"/><path d="M432,184a33.946,33.946,0,0,0-8.811,1.187,205.236,205.236,0,0,0-42.375-78.219C347.542,68.941,303.216,48,256,48s-91.542,20.941-124.814,58.968a205.236,205.236,0,0,0-42.375,78.219A33.946,33.946,0,0,0,80,184c-22.056,0-40,21.532-40,48s17.944,48,40,48c.74,0,1.477-.038,2.214-.086a213.362,213.362,0,0,0,31.879,86.44c21.369,33.039,50.491,57.431,84.368,70.717A52.036,52.036,0,0,0,244,464h24a52.036,52.036,0,0,0,45.539-26.929c33.877-13.285,63-37.676,84.366-70.717a213.34,213.34,0,0,0,31.881-86.44c.737.048,1.474.086,2.214.086,22.056,0,40-21.532,40-48S454.056,184,432,184ZM80,264c-13.233,0-24-14.355-24-32s10.767-32,24-32a18.057,18.057,0,0,1,4.934.7A227.7,227.7,0,0,0,80,248q0,8.04.549,15.979C80.366,263.984,80.183,264,80,264ZM304,412a36.04,36.04,0,0,1-36,36H244a36.04,36.04,0,0,1-36-36V300a36.04,36.04,0,0,1,36-36h24a36.04,36.04,0,0,1,36,36Zm80.471-54.334c-16.928,26.173-39.087,46.375-64.7,59.146.146-1.586.231-3.189.231-4.812V300a52.059,52.059,0,0,0-52-52h-4a8,8,0,0,0,0-16h-6.557l6.449-38.685a8,8,0,0,0-15.784-2.63l-8,48A8,8,0,0,0,248,248h-4a52.059,52.059,0,0,0-52,52V412c0,1.623.085,3.226.231,4.812-25.616-12.772-47.775-32.974-64.7-59.148C106.9,325.772,96,287.851,96,248,96,146.542,167.775,64,256,64s160,82.542,160,184C416,287.852,405.1,325.773,384.471,357.666ZM432,264c-.183,0-.366-.016-.549-.021Q432,256.044,432,248a227.7,227.7,0,0,0-4.934-47.3A18.057,18.057,0,0,1,432,200c13.233,0,24,14.355,24,32S445.233,264,432,264Z"/><circle cx="192" cy="216" r="16"/><circle cx="320" cy="216" r="16"/><path d="M284.024,281.086a8,8,0,0,0-10.938,2.89C267.984,292.741,263.354,296,256,296s-11.984-3.259-17.086-12.024a8,8,0,1,0-13.828,8.048C230.076,300.6,238.711,312,256,312c8.28,0,20.494-2.07,30.914-19.976A8,8,0,0,0,284.024,281.086Z"/></svg>
