<?xml version="1.0"?>
<svg xmlns="http://www.w3.org/2000/svg" id="Outline" viewBox="0 0 512 512" width="100%" height="100%"><path d="M183.99,248q.448,0,.9-.025a16,16,0,0,0,15.084-16.866h0A16,16,0,1,0,183.99,248Z"/><circle cx="328" cy="232" r="16"/><path d="M292.9,313.68A8,8,0,0,0,281.68,315.1C275.669,322.841,269,328,256,328s-19.669-5.159-25.68-12.9a8,8,0,1,0-12.64,9.808c6.9,8.891,17.488,19.1,38.32,19.1s31.421-10.2,38.32-19.1A8,8,0,0,0,292.9,313.68Z"/><path d="M152,304h16a8,8,0,0,0,0-16H152a8,8,0,0,0,0,16Z"/><path d="M344,304h16a8,8,0,0,0,0-16H344a8,8,0,0,0,0,16Z"/><path d="M456,241.626V232c0-110.28-89.72-200-200-200S56,121.72,56,232v9.626c-9.709,8.766-16,22.7-16,38.374,0,26.468,17.944,48,40,48a34.07,34.07,0,0,0,4.188-.284c7.141,36.648,23.255,69.834,47.092,96.123C164.117,460.055,208.41,480,256,480s91.883-19.945,124.72-56.161c23.837-26.289,39.951-59.475,47.092-96.123A34.07,34.07,0,0,0,432,328c22.056,0,40-21.532,40-48C472,264.33,465.709,250.392,456,241.626ZM72,232C72,130.542,154.542,48,256,48s184,82.542,184,184v.966a33.585,33.585,0,0,0-8-.966,34.038,34.038,0,0,0-5.652.474c-.172-.767-.326-1.539-.506-2.3-.549-2.336-1.784-6.512-2.91-10.189A7.99,7.99,0,0,0,416,208H400V168.859a8,8,0,0,0-1.21-4.231c-15.932-25.565-37.062-46.8-61.108-61.409a155.284,155.284,0,0,0-163.364,0c-24.046,14.609-45.176,35.844-61.108,61.409a8,8,0,0,0-1.21,4.231V208H96a7.992,7.992,0,0,0-7.1,11.677q-1.815,6.342-3.262,12.794A33.985,33.985,0,0,0,80,232a33.585,33.585,0,0,0-8,.966Zm56-8h8.679a48,48,0,1,0,94.642,0H247.89l-7.781,46.685A8,8,0,0,0,248,280h16a8,8,0,0,0,0-16h-6.556l6.447-38.685a8.047,8.047,0,0,0,.1-1.315h16.687a48,48,0,1,0,94.642,0H384v64a40.058,40.058,0,0,1-35.558,39.755C340.212,314.845,312.741,280,256,280s-84.212,34.845-92.442,47.755A40.058,40.058,0,0,1,128,288Zm56-24a32,32,0,1,1-32,32A32.036,32.036,0,0,1,184,200Zm144,0a32,32,0,1,1-32,32A32.036,32.036,0,0,1,328,200Zm41.542,8a47.953,47.953,0,0,0-83.084,0H225.542a47.953,47.953,0,0,0-83.084,0H128V171.174c14.462-22.593,33.31-41.33,54.626-54.281C205.443,103.029,230.13,96,256,96s50.557,7.029,73.374,20.893c21.316,12.951,40.164,31.688,54.626,54.281V208ZM80,312c-13.233,0-24-14.355-24-32s10.767-32,24-32a17.935,17.935,0,0,1,2.67.225A236.378,236.378,0,0,0,80,283.777a232.973,232.973,0,0,0,1.7,28.133C81.136,311.964,80.569,312,80,312ZM368.867,413.092C339.1,445.921,299.018,464,256,464s-83.1-18.079-112.867-50.908C112.739,379.571,96,333.646,96,283.777A216.659,216.659,0,0,1,104.305,224H112v64a56.063,56.063,0,0,0,56,56,8.047,8.047,0,0,0,7.143-4.4c.906-1.781,22.87-43.6,80.857-43.6s79.951,41.823,80.845,43.578A8,8,0,0,0,344,344a56.063,56.063,0,0,0,56-56V224h7.429c1.389,4.523,2.454,8.2,2.838,9.83A218.615,218.615,0,0,1,416,283.777C416,333.646,399.261,379.571,368.867,413.092ZM432,312c-.569,0-1.136-.036-1.7-.09a232.973,232.973,0,0,0,1.7-28.133,236.7,236.7,0,0,0-2.692-35.549A17.954,17.954,0,0,1,432,248c13.233,0,24,14.355,24,32S445.233,312,432,312Z"/></svg>
