<?xml version="1.0"?>
<svg xmlns="http://www.w3.org/2000/svg" id="Outline" viewBox="0 0 512 512" width="100%" height="100%"><path d="M152,248a8,8,0,0,0,8-8,24.028,24.028,0,0,1,24-24,8,8,0,0,0,0-16,40.045,40.045,0,0,0-40,40A8,8,0,0,0,152,248Z"/><path d="M328,200a8,8,0,0,0,0,16,24.028,24.028,0,0,1,24,24,8,8,0,0,0,16,0A40.045,40.045,0,0,0,328,200Z"/><path d="M248,280h16a8,8,0,0,0,0-16h-6.557l6.449-38.685a8,8,0,0,0-15.784-2.63l-8,48A8,8,0,0,0,248,280Z"/><path d="M168,280H152a8,8,0,0,0,0,16h16a8,8,0,0,0,0-16Z"/><path d="M360,280H344a8,8,0,0,0,0,16h16a8,8,0,0,0,0-16Z"/><path d="M440,216.966V200a87.628,87.628,0,0,0-16.694-51.292l-9.021-23.681a7.987,7.987,0,0,0-5.235-4.816l-33.9-67.789a8,8,0,0,0-6.023-4.342l-112-16a8.024,8.024,0,0,0-2.264,0l-112,16a8,8,0,0,0-6.023,4.342L102.95,120.211a7.989,7.989,0,0,0-5.235,4.816l-8.913,23.4A87.987,87.987,0,0,0,72,200v16.966C53.765,221.426,40,240.819,40,264c0,26.468,17.944,48,40,48,.57,0,1.137-.038,1.7-.066,5.219,42.884,22.36,81.891,49.574,111.9C164.116,460.055,208.41,480,256,480s91.884-19.945,124.721-56.161c27.214-30.014,44.355-69.021,49.574-111.9.568.028,1.135.066,1.7.066,22.056,0,40-21.532,40-48C472,240.819,458.235,221.426,440,216.966Zm-16,0c-.513.125-1.019.283-1.527.431a214,214,0,0,0-28.013-59.508l16.953,1.695A71.59,71.59,0,0,1,424,200ZM108.084,142.752l2.832-7.436L256,120.044l145.084,15.272,2.832,7.436L256.8,128.04c-.265-.026-.53-.04-.8-.04s-.531.014-.8.04Zm41.2-79.425L256,48.081,362.719,63.327l27.372,54.744L256.838,104.044a7.957,7.957,0,0,0-1.676,0L121.909,118.071Zm-48.8,96.265,17.061-1.706a214.026,214.026,0,0,0-28.013,59.508c-.508-.148-1.014-.306-1.527-.431V200A70.827,70.827,0,0,1,100.479,159.592ZM80,296c-13.233,0-24-14.355-24-32s10.767-32,24-32a18.072,18.072,0,0,1,5.533.875A235.522,235.522,0,0,0,80,283.777c0,4.1.118,8.165.328,12.21C80.218,295.989,80.109,296,80,296ZM368.867,413.092C339.1,445.921,299.018,464,256,464s-83.1-18.079-112.867-50.908C112.738,379.571,96,333.646,96,283.777c0-47.836,15.243-93.16,42.976-128.035L256,144.04l117.024,11.7C400.757,190.617,416,235.94,416,283.777,416,333.646,399.262,379.571,368.867,413.092ZM432,296c-.109,0-.218-.011-.328-.013.21-4.045.328-8.113.328-12.21a235.522,235.522,0,0,0-5.533-50.9A18.072,18.072,0,0,1,432,232c13.233,0,24,14.355,24,32S445.233,296,432,296Z"/><circle cx="192" cy="248" r="16"/><circle cx="320" cy="248" r="16"/><path d="M290.258,314.43C283.421,321.478,274.54,328,256,328s-27.421-6.522-34.258-13.57a8,8,0,0,0-11.484,11.14C222.621,338.316,236.729,344,256,344s33.379-5.684,45.742-18.43a8,8,0,1,0-11.484-11.14Z"/></svg>
